# MagicaVoxel @ Ephtracy

# group
o Bottle

# material
mtllib Bottle.mtl
usemtl palette

# normals
vn -1 0 0
vn 1 0 0
vn 0 0 1
vn 0 0 -1
vn 0 -1 0
vn 0 1 0

# texcoords
vt 0.0332031 0.5
vt 0.0371094 0.5
vt 0.123047 0.5

# verts
v -0.1 -0.7 0.1
v -0.1 -0.7 -0.2
v -0.1 0.3 0.1
v -0.1 0.3 -0.2
v 0 0.3 0
v 0 0.3 -0.1
v 0 0.7 0
v 0 0.7 -0.1
v 0 0.8 0
v 0 0.8 -0.1
v 0.1 0.3 0
v 0.1 0.3 -0.1
v 0.1 0.7 0
v 0.1 0.7 -0.1
v 0.1 0.8 0
v 0.1 0.8 -0.1
v 0.2 -0.7 0.1
v 0.2 -0.7 -0.2
v 0.2 -0.2 0.1
v 0.2 -0.2 -0.2
v 0.2 0.1 0.1
v 0.2 0.1 -0.2
v 0.2 0.3 0.1
v 0.2 0.3 -0.2
v -0.1 -0.7 0.1
v -0.1 0.3 0.1
v 0.1 -0.2 0.1
v 0.1 0.1 0.1
v 0.2 -0.7 0.1
v 0.2 -0.2 0.1
v 0.2 0.1 0.1
v 0.2 0.3 0.1
v 0 0.3 0
v 0 0.7 0
v 0 0.8 0
v 0.1 0.3 0
v 0.1 0.7 0
v 0.1 0.8 0
v 0 0.3 -0.1
v 0 0.7 -0.1
v 0 0.8 -0.1
v 0.1 0.3 -0.1
v 0.1 0.7 -0.1
v 0.1 0.8 -0.1
v -0.1 -0.7 -0.2
v -0.1 0.3 -0.2
v 0.1 -0.2 -0.2
v 0.1 0.1 -0.2
v 0.2 -0.7 -0.2
v 0.2 -0.2 -0.2
v 0.2 0.1 -0.2
v 0.2 0.3 -0.2
v -0.1 -0.7 0.1
v 0.2 -0.7 0.1
v -0.1 -0.7 -0.2
v 0.2 -0.7 -0.2
v -0.1 0.3 0.1
v 0.2 0.3 0.1
v 0 0.3 0
v 0.1 0.3 0
v 0 0.3 -0.1
v 0.1 0.3 -0.1
v -0.1 0.3 -0.2
v 0.2 0.3 -0.2
v 0 0.8 0
v 0.1 0.8 0
v 0 0.8 -0.1
v 0.1 0.8 -0.1

# faces
f 3/1/1 2/1/1 1/1/1
f 4/1/1 2/1/1 3/1/1
f 7/1/1 6/1/1 5/1/1
f 8/1/1 6/1/1 7/1/1
f 9/3/1 8/3/1 7/3/1
f 10/3/1 8/3/1 9/3/1
f 11/1/2 12/1/2 13/1/2
f 13/1/2 12/1/2 14/1/2
f 13/3/2 14/3/2 15/3/2
f 15/3/2 14/3/2 16/3/2
f 17/1/2 18/1/2 19/1/2
f 19/1/2 18/1/2 20/1/2
f 19/2/2 20/2/2 21/2/2
f 21/2/2 20/2/2 22/2/2
f 21/1/2 22/1/2 23/1/2
f 23/1/2 22/1/2 24/1/2
f 27/1/3 26/1/3 25/1/3
f 28/1/3 26/1/3 27/1/3
f 29/1/3 27/1/3 25/1/3
f 30/2/3 28/2/3 27/2/3
f 30/1/3 27/1/3 29/1/3
f 31/1/3 26/1/3 28/1/3
f 31/2/3 28/2/3 30/2/3
f 32/1/3 26/1/3 31/1/3
f 36/1/3 34/1/3 33/1/3
f 37/3/3 35/3/3 34/3/3
f 37/1/3 34/1/3 36/1/3
f 38/3/3 35/3/3 37/3/3
f 39/1/4 40/1/4 42/1/4
f 40/3/4 41/3/4 43/3/4
f 42/1/4 40/1/4 43/1/4
f 43/3/4 41/3/4 44/3/4
f 45/1/4 46/1/4 47/1/4
f 47/1/4 46/1/4 48/1/4
f 45/1/4 47/1/4 49/1/4
f 47/2/4 48/2/4 50/2/4
f 49/1/4 47/1/4 50/1/4
f 48/1/4 46/1/4 51/1/4
f 50/2/4 48/2/4 51/2/4
f 51/1/4 46/1/4 52/1/4
f 55/1/5 54/1/5 53/1/5
f 56/1/5 54/1/5 55/1/5
f 57/1/6 58/1/6 59/1/6
f 59/1/6 58/1/6 60/1/6
f 57/1/6 59/1/6 61/1/6
f 60/1/6 58/1/6 62/1/6
f 57/1/6 61/1/6 63/1/6
f 61/1/6 62/1/6 63/1/6
f 62/1/6 58/1/6 64/1/6
f 63/1/6 62/1/6 64/1/6
f 65/3/6 66/3/6 67/3/6
f 67/3/6 66/3/6 68/3/6
