# MagicaVoxel @ Ephtracy

# group
o BurJUIKA

# material
mtllib BurJUIKA.mtl
usemtl palette

# normals
vn -1 0 0
vn 1 0 0
vn 0 0 1
vn 0 0 -1
vn 0 -1 0
vn 0 1 0

# texcoords
vt 0.00195312 0.5
vt 0.00585938 0.5
vt 0.00976562 0.5

# verts
v -0.8 -0.5 1.1
v -0.8 -0.5 0.9
v -0.8 -0.5 -0.9
v -0.8 -0.5 -1.1
v -0.8 -0.1 0.9
v -0.8 -0.1 -0.9
v -0.8 1 1.2
v -0.8 1 1.1
v -0.8 1 -1.1
v -0.8 1 -1.2
v -0.8 1.1 1.2
v -0.8 1.1 0.1
v -0.8 1.1 -0.0999999
v -0.8 1.1 -1.2
v -0.8 2.2 0.2
v -0.8 2.2 0.1
v -0.8 2.2 -0.0999999
v -0.8 2.2 -0.2
v -0.8 2.5 0.2
v -0.8 2.5 0.1
v -0.8 2.5 -0.0999999
v -0.8 2.5 -0.2
v -0.8 2.6 0.1
v -0.8 2.6 -0.0999999
v -0.7 1.1 0.9
v -0.7 1.1 0.7
v -0.7 1.1 0.2
v -0.7 1.1 0.1
v -0.7 1.1 -0.0999999
v -0.7 1.1 -0.2
v -0.7 1.2 0.9
v -0.7 1.2 0.7
v -0.7 2.2 0.2
v -0.7 2.2 0.1
v -0.7 2.2 -0.0999999
v -0.7 2.2 -0.2
v -0.6 1.1 1
v -0.6 1.1 0.9
v -0.6 1.1 0.7
v -0.6 1.1 0.6
v -0.6 1.2 1
v -0.6 1.2 0.9
v -0.6 1.2 0.7
v -0.6 1.2 0.6
v -0.6 2.4 0.1
v -0.6 2.4 -0.0999999
v -0.6 2.5 0.1
v -0.6 2.5 -0.0999999
v -0.4 2 0.1
v -0.4 2 -0.0999999
v -0.4 2.4 0.1
v -0.4 2.4 -0.0999999
v -0.1 1.1 0.8
v -0.1 1.1 0.4
v -0.1 1.1 -0.5
v -0.1 1.1 -0.9
v -0.1 1.2 0.8
v -0.1 1.2 0.4
v -0.1 1.2 -0.5
v -0.1 1.2 -0.9
v 0 1.1 0.9
v 0 1.1 0.8
v 0 1.1 0.4
v 0 1.1 0.3
v 0 1.1 -0.4
v 0 1.1 -0.5
v 0 1.1 -0.9
v 0 1.1 -1
v 0 1.2 0.9
v 0 1.2 0.8
v 0 1.2 0.4
v 0 1.2 0.3
v 0 1.2 -0.4
v 0 1.2 -0.5
v 0 1.2 -0.9
v 0 1.2 -1
v 0.4 0 0.9
v 0.4 0 -0.9
v 0.4 1 0.9
v 0.4 1 -0.9
v 0.6 -0.5 1.1
v 0.6 -0.5 0.9
v 0.6 -0.5 -0.9
v 0.6 -0.5 -1.1
v 0.6 -0.1 1.1
v 0.6 -0.1 0.9
v 0.6 -0.1 -0.9
v 0.6 -0.1 -1.1
v -0.7 2 0.1
v -0.7 2 -0.0999999
v -0.7 2.5 0.1
v -0.7 2.5 -0.0999999
v -0.6 -0.5 1.1
v -0.6 -0.5 0.9
v -0.6 -0.5 -0.9
v -0.6 -0.5 -1.1
v -0.6 -0.1 1.1
v -0.6 -0.1 0.9
v -0.6 -0.1 -0.9
v -0.6 -0.1 -1.1
v -0.6 0 0.9
v -0.6 0 -0.9
v -0.6 1 0.9
v -0.6 1 -0.9
v -0.6 2.5 0.1
v -0.6 2.5 -0.0999999
v -0.6 2.6 0.1
v -0.6 2.6 -0.0999999
v -0.5 2.4 0.2
v -0.5 2.4 0.1
v -0.5 2.4 -0.0999999
v -0.5 2.4 -0.2
v -0.5 2.5 0.2
v -0.5 2.5 0.1
v -0.5 2.5 -0.0999999
v -0.5 2.5 -0.2
v -0.4 1.1 1
v -0.4 1.1 0.9
v -0.4 1.1 0.7
v -0.4 1.1 0.6
v -0.4 1.1 0.2
v -0.4 1.1 0.1
v -0.4 1.1 -0.0999999
v -0.4 1.1 -0.2
v -0.4 1.2 1
v -0.4 1.2 0.9
v -0.4 1.2 0.7
v -0.4 1.2 0.6
v -0.4 2.4 0.2
v -0.4 2.4 0.1
v -0.4 2.4 -0.0999999
v -0.4 2.4 -0.2
v -0.4 2.5 0.1
v -0.4 2.5 -0.0999999
v -0.3 1.1 0.9
v -0.3 1.1 0.7
v -0.3 1.1 0.1
v -0.3 1.1 -0.0999999
v -0.3 1.2 0.9
v -0.3 1.2 0.7
v -0.3 2.4 0.1
v -0.3 2.4 -0.0999999
v 0.4 1.1 0.9
v 0.4 1.1 0.8
v 0.4 1.1 0.4
v 0.4 1.1 0.3
v 0.4 1.1 -0.4
v 0.4 1.1 -0.5
v 0.4 1.1 -0.9
v 0.4 1.1 -1
v 0.4 1.2 0.9
v 0.4 1.2 0.8
v 0.4 1.2 0.4
v 0.4 1.2 0.3
v 0.4 1.2 -0.4
v 0.4 1.2 -0.5
v 0.4 1.2 -0.9
v 0.4 1.2 -1
v 0.5 1.1 0.8
v 0.5 1.1 0.4
v 0.5 1.1 -0.5
v 0.5 1.1 -0.9
v 0.5 1.2 0.8
v 0.5 1.2 0.4
v 0.5 1.2 -0.5
v 0.5 1.2 -0.9
v 0.6 0 1.1
v 0.6 0 0.9
v 0.6 0 0.3
v 0.6 0 0.2
v 0.6 0 -0.3
v 0.6 0 -1.1
v 0.6 0.5 0.9
v 0.6 0.5 0.3
v 0.6 0.5 0.2
v 0.6 0.5 -0.3
v 0.6 0.6 0.9
v 0.6 0.6 0.3
v 0.6 0.6 -0.2
v 0.6 0.6 -1
v 0.6 0.9 0.9
v 0.6 0.9 0.3
v 0.6 0.9 -0.2
v 0.6 0.9 -1
v 0.6 1 1.1
v 0.6 1 -1.1
v 0.7 0 0.9
v 0.7 0 0.3
v 0.7 0 0.2
v 0.7 0 -0.3
v 0.7 0.2 0.9
v 0.7 0.2 0.8
v 0.7 0.2 0.2
v 0.7 0.2 0.1
v 0.7 0.3 0.9
v 0.7 0.3 0.8
v 0.7 0.3 0.2
v 0.7 0.3 0.1
v 0.7 0.5 0.9
v 0.7 0.5 0.3
v 0.7 0.5 0.2
v 0.7 0.5 -0.3
v 0.7 0.6 0.9
v 0.7 0.6 0.3
v 0.7 0.6 -0.2
v 0.7 0.6 -1
v 0.7 0.7 0.9
v 0.7 0.7 0.8
v 0.7 0.7 -0.2
v 0.7 0.7 -0.3
v 0.7 0.8 0.9
v 0.7 0.8 0.8
v 0.7 0.8 -0.2
v 0.7 0.8 -0.3
v 0.7 0.9 0.9
v 0.7 0.9 0.3
v 0.7 0.9 -0.2
v 0.7 0.9 -1
v 0.7 1 1.2
v 0.7 1 -1.2
v 0.7 1.1 1.2
v 0.7 1.1 -1.2
v 0.8 -0.5 1.1
v 0.8 -0.5 0.9
v 0.8 -0.5 -0.9
v 0.8 -0.5 -1.1
v 0.8 -0.1 1.1
v 0.8 -0.1 0.9
v 0.8 -0.1 -0.9
v 0.8 -0.1 -1.1
v 0.8 0.2 0.9
v 0.8 0.2 0.8
v 0.8 0.2 0.2
v 0.8 0.2 0.1
v 0.8 0.3 0.9
v 0.8 0.3 0.8
v 0.8 0.3 0.2
v 0.8 0.3 0.1
v 0.8 0.7 0.9
v 0.8 0.7 0.8
v 0.8 0.7 -0.2
v 0.8 0.7 -0.3
v 0.8 0.8 0.9
v 0.8 0.8 0.8
v 0.8 0.8 -0.2
v 0.8 0.8 -0.3
v 0.9 -0.1 1.1
v 0.9 -0.1 -1.1
v 0.9 0 1.1
v 0.9 0 -1.1
v -0.8 1 1.2
v -0.8 1.1 1.2
v 0.7 1 1.2
v 0.7 1.1 1.2
v -0.8 -0.5 1.1
v -0.8 1 1.1
v -0.6 -0.5 1.1
v -0.6 -0.1 1.1
v 0.6 -0.5 1.1
v 0.6 -0.1 1.1
v 0.6 0 1.1
v 0.6 1 1.1
v 0.8 -0.5 1.1
v 0.8 -0.1 1.1
v 0.9 -0.1 1.1
v 0.9 0 1.1
v -0.6 1.1 1
v -0.6 1.2 1
v -0.4 1.1 1
v -0.4 1.2 1
v -0.7 1.1 0.9
v -0.7 1.2 0.9
v -0.6 1.1 0.9
v -0.6 1.2 0.9
v -0.4 1.1 0.9
v -0.4 1.2 0.9
v -0.3 1.1 0.9
v -0.3 1.2 0.9
v 0 1.1 0.9
v 0 1.2 0.9
v 0.4 1.1 0.9
v 0.4 1.2 0.9
v 0.6 0 0.9
v 0.6 0.5 0.9
v 0.6 0.6 0.9
v 0.6 0.9 0.9
v 0.7 0 0.9
v 0.7 0.2 0.9
v 0.7 0.3 0.9
v 0.7 0.5 0.9
v 0.7 0.6 0.9
v 0.7 0.7 0.9
v 0.7 0.8 0.9
v 0.7 0.9 0.9
v 0.8 0.2 0.9
v 0.8 0.3 0.9
v 0.8 0.7 0.9
v 0.8 0.8 0.9
v -0.1 1.1 0.8
v -0.1 1.2 0.8
v 0 1.1 0.8
v 0 1.2 0.8
v 0.4 1.1 0.8
v 0.4 1.2 0.8
v 0.5 1.1 0.8
v 0.5 1.2 0.8
v -0.8 2.2 0.2
v -0.8 2.5 0.2
v -0.7 1.1 0.2
v -0.7 2.2 0.2
v -0.5 2.4 0.2
v -0.5 2.5 0.2
v -0.4 1.1 0.2
v -0.4 2.4 0.2
v 0.6 0 0.2
v 0.6 0.5 0.2
v 0.7 0 0.2
v 0.7 0.2 0.2
v 0.7 0.3 0.2
v 0.7 0.5 0.2
v 0.8 0.2 0.2
v 0.8 0.3 0.2
v -0.8 1.1 0.1
v -0.8 2.2 0.1
v -0.8 2.5 0.1
v -0.8 2.6 0.1
v -0.7 1.1 0.1
v -0.7 2.2 0.1
v -0.6 2.5 0.1
v -0.6 2.6 0.1
v -0.5 2.4 0.1
v -0.5 2.5 0.1
v -0.4 1.1 0.1
v -0.4 2.4 0.1
v -0.4 2.5 0.1
v -0.3 1.1 0.1
v -0.3 2.4 0.1
v -0.7 2 -0.0999999
v -0.7 2.5 -0.0999999
v -0.6 2.4 -0.0999999
v -0.6 2.5 -0.0999999
v -0.4 2 -0.0999999
v -0.4 2.4 -0.0999999
v 0.6 0.6 -0.2
v 0.6 0.9 -0.2
v 0.7 0.6 -0.2
v 0.7 0.7 -0.2
v 0.7 0.8 -0.2
v 0.7 0.9 -0.2
v 0.8 0.7 -0.2
v 0.8 0.8 -0.2
v 0 1.1 -0.4
v 0 1.2 -0.4
v 0.4 1.1 -0.4
v 0.4 1.2 -0.4
v -0.1 1.1 -0.5
v -0.1 1.2 -0.5
v 0 1.1 -0.5
v 0 1.2 -0.5
v 0.4 1.1 -0.5
v 0.4 1.2 -0.5
v 0.5 1.1 -0.5
v 0.5 1.2 -0.5
v -0.8 -0.5 -0.9
v -0.8 -0.1 -0.9
v -0.6 -0.5 -0.9
v -0.6 -0.1 -0.9
v -0.6 0 -0.9
v -0.6 1 -0.9
v 0.4 0 -0.9
v 0.4 1 -0.9
v 0.6 -0.5 -0.9
v 0.6 -0.1 -0.9
v 0.8 -0.5 -0.9
v 0.8 -0.1 -0.9
v -0.8 -0.5 0.9
v -0.8 -0.1 0.9
v -0.6 -0.5 0.9
v -0.6 -0.1 0.9
v -0.6 0 0.9
v -0.6 1 0.9
v 0.4 0 0.9
v 0.4 1 0.9
v 0.6 -0.5 0.9
v 0.6 -0.1 0.9
v 0.8 -0.5 0.9
v 0.8 -0.1 0.9
v 0.7 0.2 0.8
v 0.7 0.3 0.8
v 0.7 0.7 0.8
v 0.7 0.8 0.8
v 0.8 0.2 0.8
v 0.8 0.3 0.8
v 0.8 0.7 0.8
v 0.8 0.8 0.8
v -0.7 1.1 0.7
v -0.7 1.2 0.7
v -0.6 1.1 0.7
v -0.6 1.2 0.7
v -0.4 1.1 0.7
v -0.4 1.2 0.7
v -0.3 1.1 0.7
v -0.3 1.2 0.7
v -0.6 1.1 0.6
v -0.6 1.2 0.6
v -0.4 1.1 0.6
v -0.4 1.2 0.6
v -0.1 1.1 0.4
v -0.1 1.2 0.4
v 0 1.1 0.4
v 0 1.2 0.4
v 0.4 1.1 0.4
v 0.4 1.2 0.4
v 0.5 1.1 0.4
v 0.5 1.2 0.4
v 0 1.1 0.3
v 0 1.2 0.3
v 0.4 1.1 0.3
v 0.4 1.2 0.3
v 0.6 0 0.3
v 0.6 0.5 0.3
v 0.6 0.6 0.3
v 0.6 0.9 0.3
v 0.7 0 0.3
v 0.7 0.5 0.3
v 0.7 0.6 0.3
v 0.7 0.9 0.3
v -0.7 2 0.1
v -0.7 2.5 0.1
v -0.6 2.4 0.1
v -0.6 2.5 0.1
v -0.4 2 0.1
v -0.4 2.4 0.1
v 0.7 0.2 0.1
v 0.7 0.3 0.1
v 0.8 0.2 0.1
v 0.8 0.3 0.1
v -0.8 1.1 -0.0999999
v -0.8 2.2 -0.0999999
v -0.8 2.5 -0.0999999
v -0.8 2.6 -0.0999999
v -0.7 1.1 -0.0999999
v -0.7 2.2 -0.0999999
v -0.6 2.5 -0.0999999
v -0.6 2.6 -0.0999999
v -0.5 2.4 -0.0999999
v -0.5 2.5 -0.0999999
v -0.4 1.1 -0.0999999
v -0.4 2.4 -0.0999999
v -0.4 2.5 -0.0999999
v -0.3 1.1 -0.0999999
v -0.3 2.4 -0.0999999
v -0.8 2.2 -0.2
v -0.8 2.5 -0.2
v -0.7 1.1 -0.2
v -0.7 2.2 -0.2
v -0.5 2.4 -0.2
v -0.5 2.5 -0.2
v -0.4 1.1 -0.2
v -0.4 2.4 -0.2
v 0.6 0 -0.3
v 0.6 0.5 -0.3
v 0.7 0 -0.3
v 0.7 0.5 -0.3
v 0.7 0.7 -0.3
v 0.7 0.8 -0.3
v 0.8 0.7 -0.3
v 0.8 0.8 -0.3
v -0.1 1.1 -0.9
v -0.1 1.2 -0.9
v 0 1.1 -0.9
v 0 1.2 -0.9
v 0.4 1.1 -0.9
v 0.4 1.2 -0.9
v 0.5 1.1 -0.9
v 0.5 1.2 -0.9
v 0 1.1 -1
v 0 1.2 -1
v 0.4 1.1 -1
v 0.4 1.2 -1
v 0.6 0.6 -1
v 0.6 0.9 -1
v 0.7 0.6 -1
v 0.7 0.9 -1
v -0.8 -0.5 -1.1
v -0.8 1 -1.1
v -0.6 -0.5 -1.1
v -0.6 -0.1 -1.1
v 0.6 -0.5 -1.1
v 0.6 -0.1 -1.1
v 0.6 0 -1.1
v 0.6 1 -1.1
v 0.8 -0.5 -1.1
v 0.8 -0.1 -1.1
v 0.9 -0.1 -1.1
v 0.9 0 -1.1
v -0.8 1 -1.2
v -0.8 1.1 -1.2
v 0.7 1 -1.2
v 0.7 1.1 -1.2
v -0.8 -0.5 1.1
v -0.6 -0.5 1.1
v 0.6 -0.5 1.1
v 0.8 -0.5 1.1
v -0.8 -0.5 0.9
v -0.6 -0.5 0.9
v 0.6 -0.5 0.9
v 0.8 -0.5 0.9
v -0.8 -0.5 -0.9
v -0.6 -0.5 -0.9
v 0.6 -0.5 -0.9
v 0.8 -0.5 -0.9
v -0.8 -0.5 -1.1
v -0.6 -0.5 -1.1
v 0.6 -0.5 -1.1
v 0.8 -0.5 -1.1
v -0.6 -0.1 1.1
v 0.6 -0.1 1.1
v 0.8 -0.1 1.1
v 0.9 -0.1 1.1
v -0.8 -0.1 0.9
v -0.6 -0.1 0.9
v 0.6 -0.1 0.9
v 0.8 -0.1 0.9
v -0.8 -0.1 -0.9
v -0.6 -0.1 -0.9
v 0.6 -0.1 -0.9
v 0.8 -0.1 -0.9
v -0.6 -0.1 -1.1
v 0.6 -0.1 -1.1
v 0.8 -0.1 -1.1
v 0.9 -0.1 -1.1
v 0.7 0.2 0.9
v 0.8 0.2 0.9
v 0.7 0.2 0.8
v 0.8 0.2 0.8
v 0.7 0.2 0.2
v 0.8 0.2 0.2
v 0.7 0.2 0.1
v 0.8 0.2 0.1
v 0.6 0.6 0.9
v 0.7 0.6 0.9
v 0.6 0.6 0.3
v 0.7 0.6 0.3
v 0.6 0.6 -0.2
v 0.7 0.6 -0.2
v 0.6 0.6 -1
v 0.7 0.6 -1
v 0.7 0.7 0.9
v 0.8 0.7 0.9
v 0.7 0.7 0.8
v 0.8 0.7 0.8
v 0.7 0.7 -0.2
v 0.8 0.7 -0.2
v 0.7 0.7 -0.3
v 0.8 0.7 -0.3
v -0.8 1 1.2
v 0.7 1 1.2
v -0.8 1 1.1
v 0.6 1 1.1
v -0.6 1 0.9
v 0.4 1 0.9
v -0.6 1 -0.9
v 0.4 1 -0.9
v -0.8 1 -1.1
v 0.6 1 -1.1
v -0.8 1 -1.2
v 0.7 1 -1.2
v -0.8 2.2 0.2
v -0.7 2.2 0.2
v -0.8 2.2 0.1
v -0.7 2.2 0.1
v -0.8 2.2 -0.0999999
v -0.7 2.2 -0.0999999
v -0.8 2.2 -0.2
v -0.7 2.2 -0.2
v -0.6 2.4 0.1
v -0.4 2.4 0.1
v -0.6 2.4 -0.0999999
v -0.4 2.4 -0.0999999
v -0.7 2.5 0.1
v -0.6 2.5 0.1
v -0.7 2.5 -0.0999999
v -0.6 2.5 -0.0999999
v 0.6 0 1.1
v 0.9 0 1.1
v -0.6 0 0.9
v 0.4 0 0.9
v 0.6 0 0.9
v 0.7 0 0.9
v 0.6 0 0.3
v 0.7 0 0.3
v 0.6 0 0.2
v 0.7 0 0.2
v 0.6 0 -0.3
v 0.7 0 -0.3
v -0.6 0 -0.9
v 0.4 0 -0.9
v 0.6 0 -1.1
v 0.9 0 -1.1
v 0.7 0.3 0.9
v 0.8 0.3 0.9
v 0.7 0.3 0.8
v 0.8 0.3 0.8
v 0.7 0.3 0.2
v 0.8 0.3 0.2
v 0.7 0.3 0.1
v 0.8 0.3 0.1
v 0.6 0.5 0.9
v 0.7 0.5 0.9
v 0.6 0.5 0.3
v 0.7 0.5 0.3
v 0.6 0.5 0.2
v 0.7 0.5 0.2
v 0.6 0.5 -0.3
v 0.7 0.5 -0.3
v 0.7 0.8 0.9
v 0.8 0.8 0.9
v 0.7 0.8 0.8
v 0.8 0.8 0.8
v 0.7 0.8 -0.2
v 0.8 0.8 -0.2
v 0.7 0.8 -0.3
v 0.8 0.8 -0.3
v 0.6 0.9 0.9
v 0.7 0.9 0.9
v 0.6 0.9 0.3
v 0.7 0.9 0.3
v 0.6 0.9 -0.2
v 0.7 0.9 -0.2
v 0.6 0.9 -1
v 0.7 0.9 -1
v -0.8 1.1 1.2
v 0.7 1.1 1.2
v -0.6 1.1 1
v -0.4 1.1 1
v -0.7 1.1 0.9
v -0.6 1.1 0.9
v -0.4 1.1 0.9
v -0.3 1.1 0.9
v 0 1.1 0.9
v 0.4 1.1 0.9
v -0.1 1.1 0.8
v 0 1.1 0.8
v 0.4 1.1 0.8
v 0.5 1.1 0.8
v -0.7 1.1 0.7
v -0.6 1.1 0.7
v -0.4 1.1 0.7
v -0.3 1.1 0.7
v -0.6 1.1 0.6
v -0.4 1.1 0.6
v -0.1 1.1 0.4
v 0 1.1 0.4
v 0.4 1.1 0.4
v 0.5 1.1 0.4
v 0 1.1 0.3
v 0.4 1.1 0.3
v -0.7 1.1 0.2
v -0.4 1.1 0.2
v -0.8 1.1 0.1
v -0.7 1.1 0.1
v -0.4 1.1 0.1
v -0.3 1.1 0.1
v -0.8 1.1 -0.0999999
v -0.7 1.1 -0.0999999
v -0.4 1.1 -0.0999999
v -0.3 1.1 -0.0999999
v -0.7 1.1 -0.2
v -0.4 1.1 -0.2
v 0 1.1 -0.4
v 0.4 1.1 -0.4
v -0.1 1.1 -0.5
v 0 1.1 -0.5
v 0.4 1.1 -0.5
v 0.5 1.1 -0.5
v -0.1 1.1 -0.9
v 0 1.1 -0.9
v 0.4 1.1 -0.9
v 0.5 1.1 -0.9
v 0 1.1 -1
v 0.4 1.1 -1
v -0.8 1.1 -1.2
v 0.7 1.1 -1.2
v -0.6 1.2 1
v -0.4 1.2 1
v -0.7 1.2 0.9
v -0.6 1.2 0.9
v -0.4 1.2 0.9
v -0.3 1.2 0.9
v 0 1.2 0.9
v 0.4 1.2 0.9
v -0.1 1.2 0.8
v 0 1.2 0.8
v 0.4 1.2 0.8
v 0.5 1.2 0.8
v -0.7 1.2 0.7
v -0.6 1.2 0.7
v -0.4 1.2 0.7
v -0.3 1.2 0.7
v -0.6 1.2 0.6
v -0.4 1.2 0.6
v -0.1 1.2 0.4
v 0 1.2 0.4
v 0.4 1.2 0.4
v 0.5 1.2 0.4
v 0 1.2 0.3
v 0.4 1.2 0.3
v 0 1.2 -0.4
v 0.4 1.2 -0.4
v -0.1 1.2 -0.5
v 0 1.2 -0.5
v 0.4 1.2 -0.5
v 0.5 1.2 -0.5
v -0.1 1.2 -0.9
v 0 1.2 -0.9
v 0.4 1.2 -0.9
v 0.5 1.2 -0.9
v 0 1.2 -1
v 0.4 1.2 -1
v -0.7 2 0.1
v -0.4 2 0.1
v -0.7 2 -0.0999999
v -0.4 2 -0.0999999
v -0.5 2.4 0.2
v -0.4 2.4 0.2
v -0.5 2.4 0.1
v -0.4 2.4 0.1
v -0.3 2.4 0.1
v -0.5 2.4 -0.0999999
v -0.4 2.4 -0.0999999
v -0.3 2.4 -0.0999999
v -0.5 2.4 -0.2
v -0.4 2.4 -0.2
v -0.8 2.5 0.2
v -0.5 2.5 0.2
v -0.8 2.5 0.1
v -0.6 2.5 0.1
v -0.5 2.5 0.1
v -0.4 2.5 0.1
v -0.8 2.5 -0.0999999
v -0.6 2.5 -0.0999999
v -0.5 2.5 -0.0999999
v -0.4 2.5 -0.0999999
v -0.8 2.5 -0.2
v -0.5 2.5 -0.2
v -0.8 2.6 0.1
v -0.6 2.6 0.1
v -0.8 2.6 -0.0999999
v -0.6 2.6 -0.0999999

# faces
f 5/3/1 2/3/1 1/3/1
f 6/3/1 4/3/1 3/3/1
f 8/3/1 5/3/1 1/3/1
f 8/3/1 6/3/1 5/3/1
f 9/3/1 4/3/1 6/3/1
f 9/3/1 6/3/1 8/3/1
f 11/3/1 8/3/1 7/3/1
f 11/3/1 10/3/1 9/3/1
f 11/3/1 9/3/1 8/3/1
f 12/3/1 10/3/1 11/3/1
f 13/3/1 10/3/1 12/3/1
f 14/3/1 10/3/1 13/3/1
f 16/2/1 13/2/1 12/2/1
f 17/2/1 13/2/1 16/2/1
f 19/2/1 16/2/1 15/2/1
f 19/2/1 18/2/1 17/2/1
f 19/2/1 17/2/1 16/2/1
f 20/2/1 18/2/1 19/2/1
f 21/2/1 18/2/1 20/2/1
f 22/2/1 18/2/1 21/2/1
f 23/2/1 21/2/1 20/2/1
f 24/2/1 21/2/1 23/2/1
f 31/1/1 26/1/1 25/1/1
f 32/1/1 26/1/1 31/1/1
f 33/2/1 28/2/1 27/2/1
f 34/2/1 28/2/1 33/2/1
f 35/2/1 30/2/1 29/2/1
f 36/2/1 30/2/1 35/2/1
f 41/1/1 38/1/1 37/1/1
f 42/1/1 38/1/1 41/1/1
f 43/1/1 40/1/1 39/1/1
f 44/1/1 40/1/1 43/1/1
f 47/2/1 46/2/1 45/2/1
f 48/2/1 46/2/1 47/2/1
f 51/2/1 50/2/1 49/2/1
f 52/2/1 50/2/1 51/2/1
f 57/1/1 54/1/1 53/1/1
f 58/1/1 54/1/1 57/1/1
f 59/1/1 56/1/1 55/1/1
f 60/1/1 56/1/1 59/1/1
f 69/1/1 62/1/1 61/1/1
f 70/1/1 62/1/1 69/1/1
f 71/1/1 64/1/1 63/1/1
f 72/1/1 64/1/1 71/1/1
f 73/1/1 66/1/1 65/1/1
f 74/1/1 66/1/1 73/1/1
f 75/1/1 68/1/1 67/1/1
f 76/1/1 68/1/1 75/1/1
f 79/3/1 78/3/1 77/3/1
f 80/3/1 78/3/1 79/3/1
f 85/3/1 82/3/1 81/3/1
f 86/3/1 82/3/1 85/3/1
f 87/3/1 84/3/1 83/3/1
f 88/3/1 84/3/1 87/3/1
f 89/2/2 90/2/2 91/2/2
f 91/2/2 90/2/2 92/2/2
f 93/3/2 94/3/2 97/3/2
f 97/3/2 94/3/2 98/3/2
f 95/3/2 96/3/2 99/3/2
f 99/3/2 96/3/2 100/3/2
f 101/3/2 102/3/2 103/3/2
f 103/3/2 102/3/2 104/3/2
f 105/2/2 106/2/2 107/2/2
f 107/2/2 106/2/2 108/2/2
f 109/2/2 110/2/2 113/2/2
f 113/2/2 110/2/2 114/2/2
f 111/2/2 112/2/2 115/2/2
f 115/2/2 112/2/2 116/2/2
f 117/1/2 118/1/2 125/1/2
f 125/1/2 118/1/2 126/1/2
f 119/1/2 120/1/2 127/1/2
f 127/1/2 120/1/2 128/1/2
f 121/2/2 122/2/2 129/2/2
f 129/2/2 122/2/2 130/2/2
f 123/2/2 124/2/2 131/2/2
f 131/2/2 124/2/2 132/2/2
f 130/2/2 131/2/2 133/2/2
f 133/2/2 131/2/2 134/2/2
f 135/1/2 136/1/2 139/1/2
f 139/1/2 136/1/2 140/1/2
f 137/2/2 138/2/2 141/2/2
f 141/2/2 138/2/2 142/2/2
f 143/1/2 144/1/2 151/1/2
f 151/1/2 144/1/2 152/1/2
f 145/1/2 146/1/2 153/1/2
f 153/1/2 146/1/2 154/1/2
f 147/1/2 148/1/2 155/1/2
f 155/1/2 148/1/2 156/1/2
f 149/1/2 150/1/2 157/1/2
f 157/1/2 150/1/2 158/1/2
f 159/1/2 160/1/2 163/1/2
f 163/1/2 160/1/2 164/1/2
f 161/1/2 162/1/2 165/1/2
f 165/1/2 162/1/2 166/1/2
f 167/3/2 168/3/2 173/3/2
f 169/3/2 170/3/2 174/3/2
f 174/3/2 170/3/2 175/3/2
f 171/3/2 172/3/2 176/3/2
f 174/3/2 175/3/2 177/3/2
f 175/3/2 176/3/2 177/3/2
f 167/3/2 173/3/2 177/3/2
f 173/3/2 174/3/2 177/3/2
f 177/3/2 176/3/2 178/3/2
f 178/3/2 176/3/2 179/3/2
f 176/3/2 172/3/2 180/3/2
f 179/3/2 176/3/2 180/3/2
f 167/3/2 177/3/2 181/3/2
f 178/3/2 179/3/2 182/3/2
f 182/3/2 179/3/2 183/3/2
f 180/3/2 172/3/2 184/3/2
f 167/3/2 181/3/2 185/3/2
f 183/3/2 184/3/2 185/3/2
f 182/3/2 183/3/2 185/3/2
f 181/3/2 182/3/2 185/3/2
f 184/3/2 172/3/2 186/3/2
f 185/3/2 184/3/2 186/3/2
f 187/1/2 188/1/2 191/1/2
f 191/1/2 188/1/2 192/1/2
f 189/1/2 190/1/2 193/1/2
f 193/1/2 190/1/2 194/1/2
f 192/1/2 188/1/2 196/1/2
f 194/1/2 190/1/2 198/1/2
f 195/1/2 196/1/2 199/1/2
f 196/1/2 188/1/2 200/1/2
f 199/1/2 196/1/2 200/1/2
f 197/1/2 198/1/2 201/1/2
f 198/1/2 190/1/2 202/1/2
f 201/1/2 198/1/2 202/1/2
f 203/1/2 204/1/2 207/1/2
f 207/1/2 204/1/2 208/1/2
f 205/1/2 206/1/2 209/1/2
f 209/1/2 206/1/2 210/1/2
f 208/1/2 204/1/2 212/1/2
f 210/1/2 206/1/2 214/1/2
f 211/1/2 212/1/2 215/1/2
f 212/1/2 204/1/2 216/1/2
f 215/1/2 212/1/2 216/1/2
f 213/1/2 214/1/2 217/1/2
f 214/1/2 206/1/2 218/1/2
f 217/1/2 214/1/2 218/1/2
f 219/3/2 220/3/2 221/3/2
f 221/3/2 220/3/2 222/3/2
f 223/3/2 224/3/2 227/3/2
f 227/3/2 224/3/2 228/3/2
f 225/3/2 226/3/2 229/3/2
f 229/3/2 226/3/2 230/3/2
f 231/2/2 232/2/2 235/2/2
f 235/2/2 232/2/2 236/2/2
f 233/2/2 234/2/2 237/2/2
f 237/2/2 234/2/2 238/2/2
f 239/2/2 240/2/2 243/2/2
f 243/2/2 240/2/2 244/2/2
f 241/2/2 242/2/2 245/2/2
f 245/2/2 242/2/2 246/2/2
f 247/3/2 248/3/2 249/3/2
f 249/3/2 248/3/2 250/3/2
f 253/3/3 252/3/3 251/3/3
f 254/3/3 252/3/3 253/3/3
f 257/3/3 256/3/3 255/3/3
f 258/3/3 256/3/3 257/3/3
f 260/3/3 256/3/3 258/3/3
f 261/3/3 256/3/3 260/3/3
f 262/3/3 256/3/3 261/3/3
f 263/3/3 260/3/3 259/3/3
f 263/3/3 261/3/3 260/3/3
f 264/3/3 261/3/3 263/3/3
f 265/3/3 261/3/3 264/3/3
f 266/3/3 261/3/3 265/3/3
f 269/1/3 268/1/3 267/1/3
f 270/1/3 268/1/3 269/1/3
f 273/1/3 272/1/3 271/1/3
f 274/1/3 272/1/3 273/1/3
f 277/1/3 276/1/3 275/1/3
f 278/1/3 276/1/3 277/1/3
f 281/1/3 280/1/3 279/1/3
f 282/1/3 280/1/3 281/1/3
f 287/1/3 284/1/3 283/1/3
f 288/1/3 284/1/3 287/1/3
f 289/1/3 284/1/3 288/1/3
f 290/1/3 284/1/3 289/1/3
f 291/1/3 286/1/3 285/1/3
f 292/1/3 286/1/3 291/1/3
f 293/1/3 286/1/3 292/1/3
f 294/1/3 286/1/3 293/1/3
f 295/2/3 289/2/3 288/2/3
f 296/2/3 289/2/3 295/2/3
f 297/2/3 293/2/3 292/2/3
f 298/2/3 293/2/3 297/2/3
f 301/1/3 300/1/3 299/1/3
f 302/1/3 300/1/3 301/1/3
f 305/1/3 304/1/3 303/1/3
f 306/1/3 304/1/3 305/1/3
f 310/2/3 308/2/3 307/2/3
f 311/2/3 308/2/3 310/2/3
f 311/2/3 310/2/3 309/2/3
f 312/2/3 308/2/3 311/2/3
f 313/2/3 311/2/3 309/2/3
f 314/2/3 311/2/3 313/2/3
f 317/1/3 316/1/3 315/1/3
f 318/1/3 316/1/3 317/1/3
f 319/1/3 316/1/3 318/1/3
f 320/1/3 316/1/3 319/1/3
f 321/2/3 319/2/3 318/2/3
f 322/2/3 319/2/3 321/2/3
f 327/2/3 324/2/3 323/2/3
f 328/2/3 324/2/3 327/2/3
f 329/2/3 326/2/3 325/2/3
f 330/2/3 326/2/3 329/2/3
f 334/2/3 332/2/3 331/2/3
f 335/2/3 332/2/3 334/2/3
f 336/2/3 334/2/3 333/2/3
f 337/2/3 334/2/3 336/2/3
f 340/2/3 339/2/3 338/2/3
f 341/2/3 339/2/3 340/2/3
f 342/2/3 340/2/3 338/2/3
f 343/2/3 340/2/3 342/2/3
f 346/1/3 345/1/3 344/1/3
f 347/1/3 345/1/3 346/1/3
f 348/1/3 345/1/3 347/1/3
f 349/1/3 345/1/3 348/1/3
f 350/2/3 348/2/3 347/2/3
f 351/2/3 348/2/3 350/2/3
f 354/1/3 353/1/3 352/1/3
f 355/1/3 353/1/3 354/1/3
f 358/1/3 357/1/3 356/1/3
f 359/1/3 357/1/3 358/1/3
f 362/1/3 361/1/3 360/1/3
f 363/1/3 361/1/3 362/1/3
f 366/3/3 365/3/3 364/3/3
f 367/3/3 365/3/3 366/3/3
f 370/3/3 369/3/3 368/3/3
f 371/3/3 369/3/3 370/3/3
f 374/3/3 373/3/3 372/3/3
f 375/3/3 373/3/3 374/3/3
f 376/3/4 377/3/4 378/3/4
f 378/3/4 377/3/4 379/3/4
f 380/3/4 381/3/4 382/3/4
f 382/3/4 381/3/4 383/3/4
f 384/3/4 385/3/4 386/3/4
f 386/3/4 385/3/4 387/3/4
f 388/2/4 389/2/4 392/2/4
f 392/2/4 389/2/4 393/2/4
f 390/2/4 391/2/4 394/2/4
f 394/2/4 391/2/4 395/2/4
f 396/1/4 397/1/4 398/1/4
f 398/1/4 397/1/4 399/1/4
f 400/1/4 401/1/4 402/1/4
f 402/1/4 401/1/4 403/1/4
f 404/1/4 405/1/4 406/1/4
f 406/1/4 405/1/4 407/1/4
f 408/1/4 409/1/4 410/1/4
f 410/1/4 409/1/4 411/1/4
f 412/1/4 413/1/4 414/1/4
f 414/1/4 413/1/4 415/1/4
f 416/1/4 417/1/4 418/1/4
f 418/1/4 417/1/4 419/1/4
f 420/1/4 421/1/4 424/1/4
f 424/1/4 421/1/4 425/1/4
f 422/1/4 423/1/4 426/1/4
f 426/1/4 423/1/4 427/1/4
f 428/2/4 429/2/4 430/2/4
f 430/2/4 429/2/4 431/2/4
f 428/2/4 430/2/4 432/2/4
f 432/2/4 430/2/4 433/2/4
f 434/2/4 435/2/4 436/2/4
f 436/2/4 435/2/4 437/2/4
f 438/2/4 439/2/4 442/2/4
f 442/2/4 439/2/4 443/2/4
f 440/2/4 441/2/4 444/2/4
f 444/2/4 441/2/4 445/2/4
f 446/2/4 447/2/4 449/2/4
f 449/2/4 447/2/4 450/2/4
f 448/2/4 449/2/4 451/2/4
f 451/2/4 449/2/4 452/2/4
f 453/2/4 454/2/4 456/2/4
f 456/2/4 454/2/4 457/2/4
f 455/2/4 456/2/4 457/2/4
f 457/2/4 454/2/4 458/2/4
f 455/2/4 457/2/4 459/2/4
f 459/2/4 457/2/4 460/2/4
f 461/1/4 462/1/4 463/1/4
f 463/1/4 462/1/4 464/1/4
f 465/2/4 466/2/4 467/2/4
f 467/2/4 466/2/4 468/2/4
f 469/1/4 470/1/4 471/1/4
f 471/1/4 470/1/4 472/1/4
f 473/1/4 474/1/4 475/1/4
f 475/1/4 474/1/4 476/1/4
f 477/1/4 478/1/4 479/1/4
f 479/1/4 478/1/4 480/1/4
f 481/1/4 482/1/4 483/1/4
f 483/1/4 482/1/4 484/1/4
f 485/3/4 486/3/4 487/3/4
f 487/3/4 486/3/4 488/3/4
f 488/3/4 486/3/4 490/3/4
f 490/3/4 486/3/4 491/3/4
f 491/3/4 486/3/4 492/3/4
f 489/3/4 490/3/4 493/3/4
f 490/3/4 491/3/4 493/3/4
f 493/3/4 491/3/4 494/3/4
f 494/3/4 491/3/4 495/3/4
f 495/3/4 491/3/4 496/3/4
f 497/3/4 498/3/4 499/3/4
f 499/3/4 498/3/4 500/3/4
f 505/3/5 502/3/5 501/3/5
f 506/3/5 502/3/5 505/3/5
f 507/3/5 504/3/5 503/3/5
f 508/3/5 504/3/5 507/3/5
f 513/3/5 510/3/5 509/3/5
f 514/3/5 510/3/5 513/3/5
f 515/3/5 512/3/5 511/3/5
f 516/3/5 512/3/5 515/3/5
f 522/3/5 518/3/5 517/3/5
f 523/3/5 518/3/5 522/3/5
f 524/3/5 520/3/5 519/3/5
f 525/3/5 523/3/5 522/3/5
f 525/3/5 524/3/5 523/3/5
f 525/3/5 522/3/5 521/3/5
f 526/3/5 524/3/5 525/3/5
f 527/3/5 524/3/5 526/3/5
f 528/3/5 520/3/5 524/3/5
f 528/3/5 524/3/5 527/3/5
f 529/3/5 527/3/5 526/3/5
f 530/3/5 527/3/5 529/3/5
f 531/3/5 520/3/5 528/3/5
f 532/3/5 520/3/5 531/3/5
f 535/2/5 534/2/5 533/2/5
f 536/2/5 534/2/5 535/2/5
f 539/2/5 538/2/5 537/2/5
f 540/2/5 538/2/5 539/2/5
f 543/1/5 542/1/5 541/1/5
f 544/1/5 542/1/5 543/1/5
f 547/1/5 546/1/5 545/1/5
f 548/1/5 546/1/5 547/1/5
f 551/2/5 550/2/5 549/2/5
f 552/2/5 550/2/5 551/2/5
f 555/2/5 554/2/5 553/2/5
f 556/2/5 554/2/5 555/2/5
f 559/3/5 558/3/5 557/3/5
f 560/3/5 558/3/5 559/3/5
f 563/3/5 562/3/5 561/3/5
f 564/3/5 562/3/5 563/3/5
f 566/3/5 558/3/5 560/3/5
f 567/3/5 566/3/5 565/3/5
f 568/3/5 558/3/5 566/3/5
f 568/3/5 566/3/5 567/3/5
f 571/2/5 570/2/5 569/2/5
f 572/2/5 570/2/5 571/2/5
f 575/2/5 574/2/5 573/2/5
f 576/2/5 574/2/5 575/2/5
f 579/2/5 578/2/5 577/2/5
f 580/2/5 578/2/5 579/2/5
f 583/2/5 582/2/5 581/2/5
f 584/2/5 582/2/5 583/2/5
f 585/3/6 586/3/6 589/3/6
f 589/3/6 586/3/6 590/3/6
f 590/3/6 586/3/6 592/3/6
f 591/3/6 592/3/6 593/3/6
f 592/3/6 586/3/6 594/3/6
f 593/3/6 592/3/6 594/3/6
f 594/3/6 586/3/6 596/3/6
f 587/3/6 588/3/6 597/3/6
f 597/3/6 588/3/6 598/3/6
f 595/3/6 596/3/6 599/3/6
f 596/3/6 586/3/6 600/3/6
f 599/3/6 596/3/6 600/3/6
f 601/2/6 602/2/6 603/2/6
f 603/2/6 602/2/6 604/2/6
f 605/2/6 606/2/6 607/2/6
f 607/2/6 606/2/6 608/2/6
f 609/1/6 610/1/6 611/1/6
f 611/1/6 610/1/6 612/1/6
f 613/1/6 614/1/6 615/1/6
f 615/1/6 614/1/6 616/1/6
f 617/2/6 618/2/6 619/2/6
f 619/2/6 618/2/6 620/2/6
f 621/2/6 622/2/6 623/2/6
f 623/2/6 622/2/6 624/2/6
f 625/1/6 626/1/6 627/1/6
f 627/1/6 626/1/6 628/1/6
f 629/1/6 630/1/6 631/1/6
f 631/1/6 630/1/6 632/1/6
f 633/3/6 634/3/6 635/3/6
f 635/3/6 634/3/6 636/3/6
f 633/3/6 635/3/6 637/3/6
f 637/3/6 635/3/6 638/3/6
f 636/3/6 634/3/6 639/3/6
f 639/3/6 634/3/6 640/3/6
f 640/3/6 634/3/6 641/3/6
f 641/3/6 634/3/6 642/3/6
f 640/3/6 641/3/6 643/3/6
f 643/3/6 641/3/6 644/3/6
f 642/3/6 634/3/6 645/3/6
f 645/3/6 634/3/6 646/3/6
f 633/3/6 637/3/6 647/3/6
f 640/3/6 643/3/6 650/3/6
f 647/3/6 648/3/6 651/3/6
f 649/3/6 650/3/6 652/3/6
f 650/3/6 643/3/6 653/3/6
f 651/3/6 652/3/6 653/3/6
f 652/3/6 650/3/6 653/3/6
f 646/3/6 634/3/6 656/3/6
f 653/3/6 654/3/6 657/3/6
f 655/3/6 656/3/6 658/3/6
f 653/3/6 657/3/6 659/3/6
f 657/3/6 658/3/6 659/3/6
f 647/3/6 651/3/6 659/3/6
f 633/3/6 647/3/6 659/3/6
f 651/3/6 653/3/6 659/3/6
f 659/3/6 658/3/6 660/3/6
f 633/3/6 659/3/6 661/3/6
f 661/3/6 659/3/6 662/3/6
f 660/3/6 658/3/6 663/3/6
f 663/3/6 658/3/6 664/3/6
f 664/3/6 658/3/6 668/3/6
f 665/3/6 666/3/6 669/3/6
f 667/3/6 668/3/6 670/3/6
f 668/3/6 658/3/6 671/3/6
f 669/3/6 670/3/6 671/3/6
f 670/3/6 668/3/6 671/3/6
f 658/3/6 656/3/6 672/3/6
f 671/3/6 658/3/6 672/3/6
f 669/3/6 671/3/6 673/3/6
f 673/3/6 671/3/6 674/3/6
f 672/3/6 656/3/6 675/3/6
f 656/3/6 634/3/6 676/3/6
f 675/3/6 656/3/6 676/3/6
f 669/3/6 673/3/6 677/3/6
f 676/3/6 634/3/6 680/3/6
f 677/3/6 678/3/6 681/3/6
f 679/3/6 680/3/6 682/3/6
f 677/3/6 681/3/6 683/3/6
f 681/3/6 682/3/6 683/3/6
f 665/3/6 669/3/6 683/3/6
f 669/3/6 677/3/6 683/3/6
f 682/3/6 680/3/6 684/3/6
f 683/3/6 682/3/6 684/3/6
f 680/3/6 634/3/6 684/3/6
f 685/1/6 686/1/6 688/1/6
f 688/1/6 686/1/6 689/1/6
f 691/1/6 692/1/6 694/1/6
f 694/1/6 692/1/6 695/1/6
f 687/1/6 688/1/6 697/1/6
f 688/1/6 689/1/6 697/1/6
f 689/1/6 690/1/6 697/1/6
f 697/1/6 690/1/6 698/1/6
f 698/1/6 690/1/6 699/1/6
f 699/1/6 690/1/6 700/1/6
f 698/1/6 699/1/6 701/1/6
f 701/1/6 699/1/6 702/1/6
f 695/1/6 696/1/6 703/1/6
f 694/1/6 695/1/6 703/1/6
f 693/1/6 694/1/6 703/1/6
f 703/1/6 696/1/6 704/1/6
f 704/1/6 696/1/6 705/1/6
f 705/1/6 696/1/6 706/1/6
f 704/1/6 705/1/6 707/1/6
f 707/1/6 705/1/6 708/1/6
f 709/1/6 710/1/6 712/1/6
f 712/1/6 710/1/6 713/1/6
f 712/1/6 713/1/6 715/1/6
f 713/1/6 714/1/6 715/1/6
f 711/1/6 712/1/6 715/1/6
f 715/1/6 714/1/6 716/1/6
f 716/1/6 714/1/6 717/1/6
f 717/1/6 714/1/6 718/1/6
f 716/1/6 717/1/6 719/1/6
f 719/1/6 717/1/6 720/1/6
f 721/2/6 722/2/6 723/2/6
f 723/2/6 722/2/6 724/2/6
f 725/2/6 726/2/6 727/2/6
f 727/2/6 726/2/6 728/2/6
f 728/2/6 729/2/6 731/2/6
f 731/2/6 729/2/6 732/2/6
f 730/2/6 731/2/6 733/2/6
f 733/2/6 731/2/6 734/2/6
f 735/2/6 736/2/6 737/2/6
f 737/2/6 736/2/6 738/2/6
f 738/2/6 736/2/6 739/2/6
f 739/2/6 740/2/6 742/2/6
f 738/2/6 739/2/6 742/2/6
f 742/2/6 740/2/6 743/2/6
f 743/2/6 740/2/6 744/2/6
f 741/2/6 742/2/6 745/2/6
f 742/2/6 743/2/6 745/2/6
f 745/2/6 743/2/6 746/2/6
f 747/2/6 748/2/6 749/2/6
f 749/2/6 748/2/6 750/2/6
