# MagicaVoxel @ Ephtracy

# group
o Battle_Axe

# material
mtllib Battle_Axe.mtl
usemtl palette

# normals
vn -1 0 0
vn 1 0 0
vn 0 0 1
vn 0 0 -1
vn 0 -1 0
vn 0 1 0

# texcoords
vt 0.0175781 0.5
vt 0.0214844 0.5
vt 0.0722656 0.5

# verts
v -0.1 -0.3 -0.8
v -0.1 -0.3 -1.8
v -0.1 -0.2 -0.7
v -0.1 -0.2 -0.8
v -0.1 -0.2 -1.7
v -0.1 -0.1 -0.7
v -0.1 -0.1 -0.8
v -0.1 -0.1 -1
v -0.1 -0.1 -1.7
v -0.1 -0.1 -1.8
v -0.1 -0.1 -1.9
v -0.1 0 -0.8
v -0.1 0 -1
v -0.1 0 -1.1
v -0.1 0 -1.7
v -0.1 0 -1.8
v -0.1 0 -1.9
v -0.1 0.1 -0.9
v -0.1 0.1 -1
v -0.1 0.1 -1.1
v -0.1 0.1 -1.6
v -0.1 0.1 -1.7
v -0.1 0.1 -1.8
v -0.1 0.2 -1.5
v -0.1 0.2 -1.6
v -0.1 0.2 -1.7
v -0.1 0.3 0.8
v -0.1 0.3 -0.9
v -0.1 0.3 -1.5
v -0.1 0.3 -1.6
v -0.1 0.3 -1.8
v -0.1 0.4 0.8
v -0.1 0.4 -0.9
v -0.1 0.4 -1
v -0.1 0.4 -1.6
v -0.1 0.5 -0.9
v -0.1 0.5 -1.8
v 0 -0.4 -0.7
v 0 -0.4 -1.8
v 0 -0.3 -0.6
v 0 -0.3 -0.7
v 0 -0.3 -0.8
v 0 -0.3 -1.8
v 0 -0.3 -2
v 0 -0.2 -0.5
v 0 -0.2 -0.6
v 0 -0.2 -0.7
v 0 -0.2 -0.8
v 0 -0.2 -1.8
v 0 -0.2 -2
v 0 -0.2 -2.1
v 0 -0.1 -0.5
v 0 -0.1 -0.7
v 0 -0.1 -0.8
v 0 -0.1 -1.8
v 0 -0.1 -1.9
v 0 -0.1 -2
v 0 -0.1 -2.1
v 0 -0.1 -2.2
v 0 0 -0.7
v 0 0 -0.8
v 0 0 -0.9
v 0 0 -1
v 0 0 -1.8
v 0 0 -1.9
v 0 0 -2
v 0 0.1 -0.8
v 0 0.1 -0.9
v 0 0.1 -1
v 0 0.1 -1.7
v 0 0.1 -1.8
v 0 0.1 -1.9
v 0 0.1 -2
v 0 0.1 -2.2
v 0 0.2 0.8
v 0 0.2 -0.8
v 0 0.2 -0.9
v 0 0.2 -1.6
v 0 0.2 -1.7
v 0 0.2 -1.8
v 0 0.3 0.9
v 0 0.3 0.8
v 0 0.3 -0.9
v 0 0.3 -1.6
v 0 0.3 -1.7
v 0 0.3 -1.8
v 0 0.3 -1.9
v 0 0.4 0.9
v 0 0.4 0.8
v 0 0.4 -0.9
v 0 0.4 -1.9
v 0 0.4 -2
v 0 0.5 0.8
v 0 0.5 -0.9
v 0 0.5 -1.8
v 0 0.5 -2
v 0 0.6 -0.9
v 0 0.6 -1.8
v 0.1 -0.4 -0.7
v 0.1 -0.4 -1.8
v 0.1 -0.3 -0.6
v 0.1 -0.3 -0.7
v 0.1 -0.3 -0.8
v 0.1 -0.3 -1.8
v 0.1 -0.3 -2
v 0.1 -0.2 -0.5
v 0.1 -0.2 -0.6
v 0.1 -0.2 -0.7
v 0.1 -0.2 -0.8
v 0.1 -0.2 -1.8
v 0.1 -0.2 -2
v 0.1 -0.2 -2.1
v 0.1 -0.1 -0.5
v 0.1 -0.1 -0.7
v 0.1 -0.1 -0.8
v 0.1 -0.1 -1.9
v 0.1 -0.1 -2
v 0.1 -0.1 -2.1
v 0.1 -0.1 -2.2
v 0.1 0 -0.7
v 0.1 0 -0.8
v 0.1 0 -0.9
v 0.1 0 -1
v 0.1 0 -1.8
v 0.1 0 -1.9
v 0.1 0 -2
v 0.1 0.1 -0.8
v 0.1 0.1 -0.9
v 0.1 0.1 -1
v 0.1 0.1 -1.7
v 0.1 0.1 -1.8
v 0.1 0.1 -1.9
v 0.1 0.1 -2
v 0.1 0.1 -2.2
v 0.1 0.2 0.8
v 0.1 0.2 -0.8
v 0.1 0.2 -0.9
v 0.1 0.2 -1.6
v 0.1 0.2 -1.7
v 0.1 0.2 -1.8
v 0.1 0.3 0.9
v 0.1 0.3 0.8
v 0.1 0.3 -0.9
v 0.1 0.3 -1.6
v 0.1 0.3 -1.7
v 0.1 0.3 -1.8
v 0.1 0.3 -1.9
v 0.1 0.4 0.9
v 0.1 0.4 0.8
v 0.1 0.4 -0.9
v 0.1 0.4 -1.9
v 0.1 0.4 -2
v 0.1 0.5 0.8
v 0.1 0.5 -0.9
v 0.1 0.5 -1.8
v 0.1 0.5 -2
v 0.1 0.6 -0.9
v 0.1 0.6 -1.8
v 0.2 -0.3 -0.8
v 0.2 -0.3 -1.8
v 0.2 -0.2 -0.7
v 0.2 -0.2 -0.8
v 0.2 -0.2 -1.8
v 0.2 -0.2 -2
v 0.2 -0.1 -0.7
v 0.2 -0.1 -0.8
v 0.2 -0.1 -1
v 0.2 -0.1 -1.9
v 0.2 -0.1 -2
v 0.2 0 -0.8
v 0.2 0 -1
v 0.2 0 -1.1
v 0.2 0 -1.7
v 0.2 0 -1.8
v 0.2 0 -1.9
v 0.2 0.1 -0.9
v 0.2 0.1 -1
v 0.2 0.1 -1.1
v 0.2 0.1 -1.6
v 0.2 0.1 -1.7
v 0.2 0.1 -1.8
v 0.2 0.2 -1.5
v 0.2 0.2 -1.6
v 0.2 0.2 -1.7
v 0.2 0.3 0.8
v 0.2 0.3 -0.9
v 0.2 0.3 -1.5
v 0.2 0.3 -1.6
v 0.2 0.3 -1.7
v 0.2 0.3 -1.8
v 0.2 0.4 0.8
v 0.2 0.4 -0.9
v 0.2 0.4 -1
v 0.2 0.4 -1.7
v 0.2 0.5 -0.9
v 0.2 0.5 -1.8
v 0 0.3 0.9
v 0 0.4 0.9
v 0.1 0.3 0.9
v 0.1 0.4 0.9
v -0.1 0.3 0.8
v -0.1 0.4 0.8
v 0 0.2 0.8
v 0 0.3 0.8
v 0 0.4 0.8
v 0 0.5 0.8
v 0.1 0.2 0.8
v 0.1 0.3 0.8
v 0.1 0.4 0.8
v 0.1 0.5 0.8
v 0.2 0.3 0.8
v 0.2 0.4 0.8
v 0 -0.2 -0.5
v 0 -0.1 -0.5
v 0.1 -0.2 -0.5
v 0.1 -0.1 -0.5
v 0 -0.3 -0.6
v 0 -0.2 -0.6
v 0.1 -0.3 -0.6
v 0.1 -0.2 -0.6
v -0.1 -0.2 -0.7
v -0.1 -0.1 -0.7
v 0 -0.4 -0.7
v 0 -0.3 -0.7
v 0 -0.2 -0.7
v 0 -0.1 -0.7
v 0 0 -0.7
v 0.1 -0.4 -0.7
v 0.1 -0.3 -0.7
v 0.1 -0.2 -0.7
v 0.1 -0.1 -0.7
v 0.1 0 -0.7
v 0.2 -0.2 -0.7
v 0.2 -0.1 -0.7
v -0.1 -0.3 -0.8
v -0.1 -0.2 -0.8
v -0.1 -0.1 -0.8
v -0.1 0 -0.8
v 0 -0.3 -0.8
v 0 -0.2 -0.8
v 0 -0.1 -0.8
v 0 0 -0.8
v 0 0.1 -0.8
v 0 0.2 -0.8
v 0.1 -0.3 -0.8
v 0.1 -0.2 -0.8
v 0.1 -0.1 -0.8
v 0.1 0 -0.8
v 0.1 0.1 -0.8
v 0.1 0.2 -0.8
v 0.2 -0.3 -0.8
v 0.2 -0.2 -0.8
v 0.2 -0.1 -0.8
v 0.2 0 -0.8
v -0.1 0.1 -0.9
v -0.1 0.3 -0.9
v -0.1 0.4 -0.9
v -0.1 0.5 -0.9
v 0 0 -0.9
v 0 0.1 -0.9
v 0 0.2 -0.9
v 0 0.3 -0.9
v 0 0.4 -0.9
v 0 0.5 -0.9
v 0 0.6 -0.9
v 0.1 0 -0.9
v 0.1 0.1 -0.9
v 0.1 0.2 -0.9
v 0.1 0.3 -0.9
v 0.1 0.4 -0.9
v 0.1 0.5 -0.9
v 0.1 0.6 -0.9
v 0.2 0.1 -0.9
v 0.2 0.3 -0.9
v 0.2 0.4 -0.9
v 0.2 0.5 -0.9
v -0.1 0 -1
v -0.1 0.1 -1
v 0 0 -1
v 0 0.1 -1
v 0.1 0 -1
v 0.1 0.1 -1
v 0.2 0 -1
v 0.2 0.1 -1
v 0 0 -2
v 0 0.1 -2
v 0.1 0 -2
v 0.1 0.1 -2
v -0.1 0.2 -1.6
v -0.1 0.3 -1.6
v 0 0.2 -1.6
v 0 0.3 -1.6
v 0.1 0.2 -1.6
v 0.1 0.3 -1.6
v 0.2 0.2 -1.6
v 0.2 0.3 -1.6
v -0.1 0.1 -1.7
v -0.1 0.2 -1.7
v 0 0.1 -1.7
v 0 0.2 -1.7
v 0 0.3 -1.7
v 0.1 0.1 -1.7
v 0.1 0.2 -1.7
v 0.1 0.3 -1.7
v 0.2 0.1 -1.7
v 0.2 0.2 -1.7
v -0.1 -0.3 -1.8
v -0.1 -0.1 -1.8
v -0.1 0 -1.8
v -0.1 0.1 -1.8
v -0.1 0.3 -1.8
v -0.1 0.5 -1.8
v 0 -0.4 -1.8
v 0 -0.3 -1.8
v 0 -0.2 -1.8
v 0 -0.1 -1.8
v 0 0 -1.8
v 0 0.1 -1.8
v 0 0.2 -1.8
v 0 0.3 -1.8
v 0 0.5 -1.8
v 0 0.6 -1.8
v 0.1 -0.4 -1.8
v 0.1 -0.3 -1.8
v 0.1 -0.2 -1.8
v 0.1 0 -1.8
v 0.1 0.1 -1.8
v 0.1 0.2 -1.8
v 0.1 0.3 -1.8
v 0.1 0.5 -1.8
v 0.1 0.6 -1.8
v 0.2 -0.3 -1.8
v 0.2 -0.2 -1.8
v 0.2 0 -1.8
v 0.2 0.1 -1.8
v 0.2 0.3 -1.8
v 0.2 0.5 -1.8
v -0.1 -0.1 -1.9
v -0.1 0 -1.9
v 0 -0.1 -1.9
v 0 0 -1.9
v 0 0.1 -1.9
v 0 0.3 -1.9
v 0 0.4 -1.9
v 0.1 -0.1 -1.9
v 0.1 0 -1.9
v 0.1 0.1 -1.9
v 0.1 0.3 -1.9
v 0.1 0.4 -1.9
v 0.2 -0.1 -1.9
v 0.2 0 -1.9
v 0 -0.3 -2
v 0 -0.2 -2
v 0 0.4 -2
v 0 0.5 -2
v 0.1 -0.3 -2
v 0.1 -0.2 -2
v 0.1 -0.1 -2
v 0.1 0.4 -2
v 0.1 0.5 -2
v 0.2 -0.2 -2
v 0.2 -0.1 -2
v 0 -0.2 -2.1
v 0 -0.1 -2.1
v 0.1 -0.2 -2.1
v 0.1 -0.1 -2.1
v 0 -0.1 -2.2
v 0 0.1 -2.2
v 0.1 -0.1 -2.2
v 0.1 0.1 -2.2
v 0 -0.4 -0.7
v 0.1 -0.4 -0.7
v 0 -0.4 -1.8
v 0.1 -0.4 -1.8
v 0 -0.3 -0.6
v 0.1 -0.3 -0.6
v 0 -0.3 -0.7
v 0.1 -0.3 -0.7
v -0.1 -0.3 -0.8
v 0 -0.3 -0.8
v 0.1 -0.3 -0.8
v 0.2 -0.3 -0.8
v -0.1 -0.3 -1.8
v 0 -0.3 -1.8
v 0.1 -0.3 -1.8
v 0.2 -0.3 -1.8
v 0 -0.3 -2
v 0.1 -0.3 -2
v 0 -0.2 -0.5
v 0.1 -0.2 -0.5
v 0 -0.2 -0.6
v 0.1 -0.2 -0.6
v -0.1 -0.2 -0.7
v 0 -0.2 -0.7
v 0.1 -0.2 -0.7
v 0.2 -0.2 -0.7
v -0.1 -0.2 -0.8
v 0 -0.2 -0.8
v 0.1 -0.2 -0.8
v 0.2 -0.2 -0.8
v 0.1 -0.2 -1.8
v 0.2 -0.2 -1.8
v 0 -0.2 -2
v 0.1 -0.2 -2
v 0.2 -0.2 -2
v 0 -0.2 -2.1
v 0.1 -0.2 -2.1
v -0.1 -0.1 -1.8
v 0 -0.1 -1.8
v -0.1 -0.1 -1.9
v 0 -0.1 -1.9
v 0 -0.1 -2.1
v 0.1 -0.1 -2.1
v 0 -0.1 -2.2
v 0.1 -0.1 -2.2
v 0 0.1 -0.8
v 0.1 0.1 -0.8
v -0.1 0.1 -0.9
v 0 0.1 -0.9
v 0.1 0.1 -0.9
v 0.2 0.1 -0.9
v -0.1 0.1 -1
v 0 0.1 -1
v 0.1 0.1 -1
v 0.2 0.1 -1
v 0 0.2 0.8
v 0.1 0.2 0.8
v 0 0.2 -0.8
v 0.1 0.2 -0.8
v 0 0.3 0.9
v 0.1 0.3 0.9
v -0.1 0.3 0.8
v 0 0.3 0.8
v 0.1 0.3 0.8
v 0.2 0.3 0.8
v -0.1 0.3 -0.9
v 0 0.3 -0.9
v 0.1 0.3 -0.9
v 0.2 0.3 -0.9
v -0.1 0.3 -1.6
v 0 0.3 -1.6
v 0.1 0.3 -1.6
v 0.2 0.3 -1.6
v 0 0.3 -1.7
v 0.1 0.3 -1.7
v 0.2 0.3 -1.7
v -0.1 0.3 -1.8
v 0 0.3 -1.8
v 0.1 0.3 -1.8
v 0.2 0.3 -1.8
v 0 0.3 -1.9
v 0.1 0.3 -1.9
v 0 0.4 -1.9
v 0.1 0.4 -1.9
v 0 0.4 -2
v 0.1 0.4 -2
v 0 -0.1 -0.5
v 0.1 -0.1 -0.5
v -0.1 -0.1 -0.7
v 0 -0.1 -0.7
v 0.1 -0.1 -0.7
v 0.2 -0.1 -0.7
v -0.1 -0.1 -0.8
v 0 -0.1 -0.8
v 0.1 -0.1 -0.8
v 0.2 -0.1 -0.8
v 0.1 -0.1 -1.9
v 0.2 -0.1 -1.9
v 0.1 -0.1 -2
v 0.2 -0.1 -2
v 0 0 -0.7
v 0.1 0 -0.7
v -0.1 0 -0.8
v 0 0 -0.8
v 0.1 0 -0.8
v 0.2 0 -0.8
v 0 0 -0.9
v 0.1 0 -0.9
v -0.1 0 -1
v 0 0 -1
v 0.1 0 -1
v 0.2 0 -1
v -0.1 0 -1.8
v 0 0 -1.8
v 0.1 0 -1.8
v 0.2 0 -1.8
v -0.1 0 -1.9
v 0 0 -1.9
v 0.1 0 -1.9
v 0.2 0 -1.9
v 0 0 -2
v 0.1 0 -2
v -0.1 0.1 -1.7
v 0 0.1 -1.7
v 0.1 0.1 -1.7
v 0.2 0.1 -1.7
v -0.1 0.1 -1.8
v 0 0.1 -1.8
v 0.1 0.1 -1.8
v 0.2 0.1 -1.8
v 0 0.1 -1.9
v 0.1 0.1 -1.9
v 0 0.1 -2
v 0.1 0.1 -2
v 0 0.1 -2.2
v 0.1 0.1 -2.2
v -0.1 0.2 -1.6
v 0 0.2 -1.6
v 0.1 0.2 -1.6
v 0.2 0.2 -1.6
v -0.1 0.2 -1.7
v 0 0.2 -1.7
v 0.1 0.2 -1.7
v 0.2 0.2 -1.7
v 0 0.2 -1.8
v 0.1 0.2 -1.8
v 0 0.4 0.9
v 0.1 0.4 0.9
v -0.1 0.4 0.8
v 0 0.4 0.8
v 0.1 0.4 0.8
v 0.2 0.4 0.8
v -0.1 0.4 -0.9
v 0 0.4 -0.9
v 0.1 0.4 -0.9
v 0.2 0.4 -0.9
v 0 0.5 0.8
v 0.1 0.5 0.8
v -0.1 0.5 -0.9
v 0 0.5 -0.9
v 0.1 0.5 -0.9
v 0.2 0.5 -0.9
v -0.1 0.5 -1.8
v 0 0.5 -1.8
v 0.1 0.5 -1.8
v 0.2 0.5 -1.8
v 0 0.5 -2
v 0.1 0.5 -2
v 0 0.6 -0.9
v 0.1 0.6 -0.9
v 0 0.6 -1.8
v 0.1 0.6 -1.8

# faces
f 4/2/1 2/2/1 1/2/1
f 5/2/1 2/2/1 4/2/1
f 6/2/1 4/2/1 3/2/1
f 7/1/1 5/1/1 4/1/1
f 7/2/1 4/2/1 6/2/1
f 8/1/1 5/1/1 7/1/1
f 9/2/1 2/2/1 5/2/1
f 9/1/1 5/1/1 8/1/1
f 10/2/1 2/2/1 9/2/1
f 12/2/1 8/2/1 7/2/1
f 13/1/1 10/1/1 9/1/1
f 13/2/1 8/2/1 12/2/1
f 13/1/1 9/1/1 8/1/1
f 14/1/1 10/1/1 13/1/1
f 15/1/1 10/1/1 14/1/1
f 16/2/1 11/2/1 10/2/1
f 16/1/1 10/1/1 15/1/1
f 17/2/1 11/2/1 16/2/1
f 19/2/1 14/2/1 13/2/1
f 20/1/1 15/1/1 14/1/1
f 20/2/1 14/2/1 19/2/1
f 21/1/1 15/1/1 20/1/1
f 22/2/1 16/2/1 15/2/1
f 22/1/1 15/1/1 21/1/1
f 23/2/1 16/2/1 22/2/1
f 24/1/1 21/1/1 20/1/1
f 24/1/1 20/1/1 19/1/1
f 25/2/1 22/2/1 21/2/1
f 25/1/1 21/1/1 24/1/1
f 26/2/1 22/2/1 25/2/1
f 28/2/1 19/2/1 18/2/1
f 29/1/1 24/1/1 19/1/1
f 29/2/1 25/2/1 24/2/1
f 30/2/1 25/2/1 29/2/1
f 32/3/1 28/3/1 27/3/1
f 33/2/1 19/2/1 28/2/1
f 33/3/1 28/3/1 32/3/1
f 34/1/1 30/1/1 29/1/1
f 34/2/1 19/2/1 33/2/1
f 34/1/1 29/1/1 19/1/1
f 35/2/1 31/2/1 30/2/1
f 35/1/1 30/1/1 34/1/1
f 36/2/1 34/2/1 33/2/1
f 36/2/1 35/2/1 34/2/1
f 37/2/1 31/2/1 35/2/1
f 37/2/1 35/2/1 36/2/1
f 41/2/1 39/2/1 38/2/1
f 42/2/1 39/2/1 41/2/1
f 43/2/1 39/2/1 42/2/1
f 46/2/1 41/2/1 40/2/1
f 47/1/1 42/1/1 41/1/1
f 47/2/1 41/2/1 46/2/1
f 48/1/1 42/1/1 47/1/1
f 49/2/1 44/2/1 43/2/1
f 50/2/1 44/2/1 49/2/1
f 52/2/1 46/2/1 45/2/1
f 52/2/1 47/2/1 46/2/1
f 53/2/1 47/2/1 52/2/1
f 55/1/1 50/1/1 49/1/1
f 56/1/1 50/1/1 55/1/1
f 57/2/1 51/2/1 50/2/1
f 57/1/1 50/1/1 56/1/1
f 58/2/1 51/2/1 57/2/1
f 60/2/1 54/2/1 53/2/1
f 61/2/1 54/2/1 60/2/1
f 65/2/1 59/2/1 58/2/1
f 65/2/1 58/2/1 57/2/1
f 65/2/1 57/2/1 56/2/1
f 66/2/1 59/2/1 65/2/1
f 68/2/1 63/2/1 62/2/1
f 69/2/1 63/2/1 68/2/1
f 71/2/1 65/2/1 64/2/1
f 72/2/1 65/2/1 71/2/1
f 73/2/1 59/2/1 66/2/1
f 74/2/1 59/2/1 73/2/1
f 76/1/1 68/1/1 67/1/1
f 77/1/1 68/1/1 76/1/1
f 79/2/1 71/2/1 70/2/1
f 80/2/1 71/2/1 79/2/1
f 82/3/1 77/3/1 76/3/1
f 82/3/1 76/3/1 75/3/1
f 83/3/1 77/3/1 82/3/1
f 84/2/1 79/2/1 78/2/1
f 85/2/1 79/2/1 84/2/1
f 88/3/1 82/3/1 81/3/1
f 89/3/1 82/3/1 88/3/1
f 91/2/1 87/2/1 86/2/1
f 93/3/1 90/3/1 89/3/1
f 94/3/1 90/3/1 93/3/1
f 95/2/1 92/2/1 91/2/1
f 95/2/1 91/2/1 86/2/1
f 96/2/1 92/2/1 95/2/1
f 97/2/1 95/2/1 94/2/1
f 98/2/1 95/2/1 97/2/1
f 99/2/2 100/2/2 102/2/2
f 102/2/2 100/2/2 103/2/2
f 103/2/2 100/2/2 104/2/2
f 101/2/2 102/2/2 107/2/2
f 102/1/2 103/1/2 108/1/2
f 107/2/2 102/2/2 108/2/2
f 108/1/2 103/1/2 109/1/2
f 104/2/2 105/2/2 110/2/2
f 110/2/2 105/2/2 111/2/2
f 106/2/2 107/2/2 113/2/2
f 107/2/2 108/2/2 113/2/2
f 113/2/2 108/2/2 114/2/2
f 111/2/2 112/2/2 117/2/2
f 117/2/2 112/2/2 118/2/2
f 114/2/2 115/2/2 120/2/2
f 120/2/2 115/2/2 121/2/2
f 118/2/2 119/2/2 125/2/2
f 117/2/2 118/2/2 125/2/2
f 116/2/2 117/2/2 125/2/2
f 125/2/2 119/2/2 126/2/2
f 122/2/2 123/2/2 128/2/2
f 128/2/2 123/2/2 129/2/2
f 124/2/2 125/2/2 131/2/2
f 131/2/2 125/2/2 132/2/2
f 126/2/2 119/2/2 133/2/2
f 133/2/2 119/2/2 134/2/2
f 127/1/2 128/1/2 136/1/2
f 136/1/2 128/1/2 137/1/2
f 130/2/2 131/2/2 139/2/2
f 139/2/2 131/2/2 140/2/2
f 136/3/2 137/3/2 142/3/2
f 135/3/2 136/3/2 142/3/2
f 142/3/2 137/3/2 143/3/2
f 138/2/2 139/2/2 144/2/2
f 144/2/2 139/2/2 145/2/2
f 141/3/2 142/3/2 148/3/2
f 148/3/2 142/3/2 149/3/2
f 146/2/2 147/2/2 151/2/2
f 149/3/2 150/3/2 153/3/2
f 153/3/2 150/3/2 154/3/2
f 151/2/2 152/2/2 155/2/2
f 146/2/2 151/2/2 155/2/2
f 155/2/2 152/2/2 156/2/2
f 154/2/2 155/2/2 157/2/2
f 157/2/2 155/2/2 158/2/2
f 159/2/2 160/2/2 162/2/2
f 162/2/2 160/2/2 163/2/2
f 161/2/2 162/2/2 165/2/2
f 162/1/2 163/1/2 166/1/2
f 165/2/2 162/2/2 166/2/2
f 166/1/2 163/1/2 167/1/2
f 163/2/2 164/2/2 168/2/2
f 168/2/2 164/2/2 169/2/2
f 166/2/2 167/2/2 170/2/2
f 167/1/2 163/1/2 171/1/2
f 170/2/2 167/2/2 171/2/2
f 171/1/2 163/1/2 172/1/2
f 172/1/2 163/1/2 173/1/2
f 163/2/2 168/2/2 174/2/2
f 173/1/2 163/1/2 174/1/2
f 174/2/2 168/2/2 175/2/2
f 171/2/2 172/2/2 177/2/2
f 172/1/2 173/1/2 178/1/2
f 177/2/2 172/2/2 178/2/2
f 178/1/2 173/1/2 179/1/2
f 173/2/2 174/2/2 180/2/2
f 179/1/2 173/1/2 180/1/2
f 180/2/2 174/2/2 181/2/2
f 178/1/2 179/1/2 182/1/2
f 177/1/2 178/1/2 182/1/2
f 179/2/2 180/2/2 183/2/2
f 182/1/2 179/1/2 183/1/2
f 183/2/2 180/2/2 184/2/2
f 176/2/2 177/2/2 186/2/2
f 177/1/2 182/1/2 187/1/2
f 182/2/2 183/2/2 187/2/2
f 187/2/2 183/2/2 188/2/2
f 185/3/2 186/3/2 191/3/2
f 186/2/2 177/2/2 192/2/2
f 191/3/2 186/3/2 192/3/2
f 188/1/2 189/1/2 193/1/2
f 192/2/2 177/2/2 193/2/2
f 177/1/2 187/1/2 193/1/2
f 187/1/2 188/1/2 193/1/2
f 189/2/2 190/2/2 194/2/2
f 193/1/2 189/1/2 194/1/2
f 192/2/2 193/2/2 195/2/2
f 193/2/2 194/2/2 195/2/2
f 194/2/2 190/2/2 196/2/2
f 195/2/2 194/2/2 196/2/2
f 199/3/3 198/3/3 197/3/3
f 200/3/3 198/3/3 199/3/3
f 204/3/3 202/3/3 201/3/3
f 205/3/3 202/3/3 204/3/3
f 207/3/3 204/3/3 203/3/3
f 208/3/3 204/3/3 207/3/3
f 209/3/3 206/3/3 205/3/3
f 210/3/3 206/3/3 209/3/3
f 211/3/3 209/3/3 208/3/3
f 212/3/3 209/3/3 211/3/3
f 215/2/3 214/2/3 213/2/3
f 216/2/3 214/2/3 215/2/3
f 219/2/3 218/2/3 217/2/3
f 220/2/3 218/2/3 219/2/3
f 225/2/3 222/2/3 221/2/3
f 226/2/3 222/2/3 225/2/3
f 228/2/3 224/2/3 223/2/3
f 229/2/3 224/2/3 228/2/3
f 231/2/3 227/2/3 226/2/3
f 232/2/3 227/2/3 231/2/3
f 233/2/3 231/2/3 230/2/3
f 234/2/3 231/2/3 233/2/3
f 239/2/3 236/2/3 235/2/3
f 240/2/3 236/2/3 239/2/3
f 241/2/3 238/2/3 237/2/3
f 242/2/3 238/2/3 241/2/3
f 249/1/3 244/1/3 243/1/3
f 250/1/3 244/1/3 249/1/3
f 251/2/3 246/2/3 245/2/3
f 252/2/3 246/2/3 251/2/3
f 253/2/3 248/2/3 247/2/3
f 254/2/3 248/2/3 253/2/3
f 260/2/3 256/2/3 255/2/3
f 261/2/3 256/2/3 260/2/3
f 262/2/3 256/2/3 261/2/3
f 263/2/3 258/2/3 257/2/3
f 264/2/3 258/2/3 263/2/3
f 266/2/3 260/2/3 259/2/3
f 267/2/3 260/2/3 266/2/3
f 271/2/3 265/2/3 264/2/3
f 272/2/3 265/2/3 271/2/3
f 273/2/3 269/2/3 268/2/3
f 273/2/3 268/2/3 267/2/3
f 274/2/3 269/2/3 273/2/3
f 275/2/3 271/2/3 270/2/3
f 276/2/3 271/2/3 275/2/3
f 279/2/3 278/2/3 277/2/3
f 280/2/3 278/2/3 279/2/3
f 283/2/3 282/2/3 281/2/3
f 284/2/3 282/2/3 283/2/3
f 287/2/3 286/2/3 285/2/3
f 288/2/3 286/2/3 287/2/3
f 289/2/4 290/2/4 291/2/4
f 291/2/4 290/2/4 292/2/4
f 293/2/4 294/2/4 295/2/4
f 295/2/4 294/2/4 296/2/4
f 297/2/4 298/2/4 299/2/4
f 299/2/4 298/2/4 300/2/4
f 300/2/4 301/2/4 303/2/4
f 303/2/4 301/2/4 304/2/4
f 302/2/4 303/2/4 305/2/4
f 305/2/4 303/2/4 306/2/4
f 307/2/4 308/2/4 314/2/4
f 314/2/4 308/2/4 315/2/4
f 315/2/4 308/2/4 316/2/4
f 309/2/4 310/2/4 317/2/4
f 317/2/4 310/2/4 318/2/4
f 311/2/4 312/2/4 320/2/4
f 320/2/4 312/2/4 321/2/4
f 313/2/4 314/2/4 323/2/4
f 323/2/4 314/2/4 324/2/4
f 318/2/4 319/2/4 327/2/4
f 327/2/4 319/2/4 328/2/4
f 321/2/4 322/2/4 330/2/4
f 330/2/4 322/2/4 331/2/4
f 324/2/4 325/2/4 332/2/4
f 332/2/4 325/2/4 333/2/4
f 326/2/4 327/2/4 334/2/4
f 334/2/4 327/2/4 335/2/4
f 329/2/4 330/2/4 336/2/4
f 336/2/4 330/2/4 337/2/4
f 338/2/4 339/2/4 340/2/4
f 340/2/4 339/2/4 341/2/4
f 341/2/4 342/2/4 346/2/4
f 346/2/4 342/2/4 347/2/4
f 343/2/4 344/2/4 348/2/4
f 348/2/4 344/2/4 349/2/4
f 345/2/4 346/2/4 350/2/4
f 350/2/4 346/2/4 351/2/4
f 352/2/4 353/2/4 356/2/4
f 356/2/4 353/2/4 357/2/4
f 354/2/4 355/2/4 359/2/4
f 359/2/4 355/2/4 360/2/4
f 357/2/4 358/2/4 361/2/4
f 361/2/4 358/2/4 362/2/4
f 363/2/4 364/2/4 365/2/4
f 365/2/4 364/2/4 366/2/4
f 367/2/4 368/2/4 369/2/4
f 369/2/4 368/2/4 370/2/4
f 373/2/5 372/2/5 371/2/5
f 374/2/5 372/2/5 373/2/5
f 377/2/5 376/2/5 375/2/5
f 378/2/5 376/2/5 377/2/5
f 383/2/5 380/2/5 379/2/5
f 384/2/5 380/2/5 383/2/5
f 385/2/5 382/2/5 381/2/5
f 386/2/5 382/2/5 385/2/5
f 387/2/5 385/2/5 384/2/5
f 388/2/5 385/2/5 387/2/5
f 391/2/5 390/2/5 389/2/5
f 392/2/5 390/2/5 391/2/5
f 397/2/5 394/2/5 393/2/5
f 398/2/5 394/2/5 397/2/5
f 399/2/5 396/2/5 395/2/5
f 400/2/5 396/2/5 399/2/5
f 404/2/5 402/2/5 401/2/5
f 405/2/5 402/2/5 404/2/5
f 406/2/5 404/2/5 403/2/5
f 407/2/5 404/2/5 406/2/5
f 410/2/5 409/2/5 408/2/5
f 411/2/5 409/2/5 410/2/5
f 414/2/5 413/2/5 412/2/5
f 415/2/5 413/2/5 414/2/5
f 419/1/5 417/1/5 416/1/5
f 420/1/5 417/1/5 419/1/5
f 422/2/5 419/2/5 418/2/5
f 423/2/5 419/2/5 422/2/5
f 424/2/5 421/2/5 420/2/5
f 425/2/5 421/2/5 424/2/5
f 428/3/5 427/3/5 426/3/5
f 429/3/5 427/3/5 428/3/5
f 433/3/5 431/3/5 430/3/5
f 434/3/5 431/3/5 433/3/5
f 436/3/5 433/3/5 432/3/5
f 437/3/5 433/3/5 436/3/5
f 438/3/5 435/3/5 434/3/5
f 439/3/5 435/3/5 438/3/5
f 444/2/5 441/2/5 440/2/5
f 445/1/5 443/1/5 442/1/5
f 446/1/5 443/1/5 445/1/5
f 447/2/5 444/2/5 440/2/5
f 447/2/5 445/2/5 444/2/5
f 447/2/5 446/2/5 445/2/5
f 448/2/5 446/2/5 447/2/5
f 449/2/5 446/2/5 448/2/5
f 450/2/5 446/2/5 449/2/5
f 451/2/5 449/2/5 448/2/5
f 452/2/5 449/2/5 451/2/5
f 455/2/5 454/2/5 453/2/5
f 456/2/5 454/2/5 455/2/5
f 457/2/6 458/2/6 460/2/6
f 460/2/6 458/2/6 461/2/6
f 459/2/6 460/2/6 463/2/6
f 463/2/6 460/2/6 464/2/6
f 461/2/6 462/2/6 465/2/6
f 465/2/6 462/2/6 466/2/6
f 467/2/6 468/2/6 469/2/6
f 469/2/6 468/2/6 470/2/6
f 471/2/6 472/2/6 474/2/6
f 474/2/6 472/2/6 475/2/6
f 473/2/6 474/2/6 477/2/6
f 475/2/6 476/2/6 477/2/6
f 474/2/6 475/2/6 477/2/6
f 477/2/6 476/2/6 478/2/6
f 473/2/6 477/2/6 479/2/6
f 479/2/6 477/2/6 480/2/6
f 478/2/6 476/2/6 481/2/6
f 481/2/6 476/2/6 482/2/6
f 483/2/6 484/2/6 487/2/6
f 487/2/6 484/2/6 488/2/6
f 485/2/6 486/2/6 489/2/6
f 489/2/6 486/2/6 490/2/6
f 488/2/6 489/2/6 491/2/6
f 491/2/6 489/2/6 492/2/6
f 493/2/6 494/2/6 497/2/6
f 497/2/6 494/2/6 498/2/6
f 495/2/6 496/2/6 499/2/6
f 499/2/6 496/2/6 500/2/6
f 498/2/6 499/2/6 501/2/6
f 501/2/6 499/2/6 502/2/6
f 503/2/6 504/2/6 505/2/6
f 505/2/6 504/2/6 506/2/6
f 507/2/6 508/2/6 511/2/6
f 511/2/6 508/2/6 512/2/6
f 509/2/6 510/2/6 513/2/6
f 513/2/6 510/2/6 514/2/6
f 512/2/6 513/2/6 515/2/6
f 515/2/6 513/2/6 516/2/6
f 517/3/6 518/3/6 520/3/6
f 520/3/6 518/3/6 521/3/6
f 519/3/6 520/3/6 523/3/6
f 523/3/6 520/3/6 524/3/6
f 521/3/6 522/3/6 525/3/6
f 525/3/6 522/3/6 526/3/6
f 527/3/6 528/3/6 530/3/6
f 530/3/6 528/3/6 531/3/6
f 529/2/6 530/2/6 533/2/6
f 533/2/6 530/2/6 534/2/6
f 531/2/6 532/2/6 535/2/6
f 535/2/6 532/2/6 536/2/6
f 534/2/6 535/2/6 537/2/6
f 537/2/6 535/2/6 538/2/6
f 539/2/6 540/2/6 541/2/6
f 541/2/6 540/2/6 542/2/6
