# MagicaVoxel @ Ephtracy

# group
o Sword

# material
mtllib Sword.mtl
usemtl palette

# normals
vn -1 0 0
vn 1 0 0
vn 0 0 1
vn 0 0 -1
vn 0 -1 0
vn 0 1 0

# texcoords
vt 0.00976562 0.5
vt 0.0175781 0.5
vt 0.0214844 0.5
vt 0.0722656 0.5

# verts
v -0.1 0.1 0
v -0.1 0.1 -0.1
v -0.1 0.2 0.7
v -0.1 0.2 0.6
v -0.1 0.3 0.8
v -0.1 0.3 0.7
v -0.1 0.3 0.6
v -0.1 0.3 0
v -0.1 0.3 -0.1
v -0.1 0.3 -1.8
v -0.1 0.4 0.8
v -0.1 0.4 0.7
v -0.1 0.4 0.6
v -0.1 0.4 0
v -0.1 0.4 -0.1
v -0.1 0.4 -1.8
v -0.1 0.5 0.7
v -0.1 0.5 0.6
v -0.1 0.6 0
v -0.1 0.6 -0.1
v 0 0 0
v 0 0 -0.1
v 0 0.1 0
v 0 0.1 -0.1
v 0 0.1 -1.8
v 0 0.2 0.8
v 0 0.2 0.7
v 0 0.2 0.6
v 0 0.2 0
v 0 0.2 -0.1
v 0 0.2 -1.8
v 0 0.2 -2.1
v 0 0.3 0.9
v 0 0.3 0.8
v 0 0.3 0.7
v 0 0.3 0.6
v 0 0.3 0
v 0 0.3 -0.1
v 0 0.3 -1.8
v 0 0.3 -2.1
v 0 0.3 -2.3
v 0 0.4 0.9
v 0 0.4 0.8
v 0 0.4 0.7
v 0 0.4 0.6
v 0 0.4 0
v 0 0.4 -0.1
v 0 0.4 -1.8
v 0 0.4 -2.1
v 0 0.4 -2.3
v 0 0.5 0.8
v 0 0.5 0.7
v 0 0.5 0.6
v 0 0.5 0
v 0 0.5 -0.1
v 0 0.5 -1.8
v 0 0.5 -2.1
v 0 0.6 0
v 0 0.6 -0.1
v 0 0.6 -1.8
v 0 0.7 0
v 0 0.7 -0.1
v 0.1 0 0
v 0.1 0 -0.1
v 0.1 0.1 0
v 0.1 0.1 -0.1
v 0.1 0.1 -1.8
v 0.1 0.2 0.8
v 0.1 0.2 0.7
v 0.1 0.2 0.6
v 0.1 0.2 0
v 0.1 0.2 -0.1
v 0.1 0.2 -1.8
v 0.1 0.2 -2.1
v 0.1 0.3 0.9
v 0.1 0.3 0.8
v 0.1 0.3 0.7
v 0.1 0.3 0.6
v 0.1 0.3 0
v 0.1 0.3 -0.1
v 0.1 0.3 -1.8
v 0.1 0.3 -2.1
v 0.1 0.3 -2.3
v 0.1 0.4 0.9
v 0.1 0.4 0.8
v 0.1 0.4 0.7
v 0.1 0.4 0.6
v 0.1 0.4 0
v 0.1 0.4 -0.1
v 0.1 0.4 -1.8
v 0.1 0.4 -2.1
v 0.1 0.4 -2.3
v 0.1 0.5 0.8
v 0.1 0.5 0.7
v 0.1 0.5 0.6
v 0.1 0.5 0
v 0.1 0.5 -0.1
v 0.1 0.5 -1.8
v 0.1 0.5 -2.1
v 0.1 0.6 0
v 0.1 0.6 -0.1
v 0.1 0.6 -1.8
v 0.1 0.7 0
v 0.1 0.7 -0.1
v 0.2 0.1 0
v 0.2 0.1 -0.1
v 0.2 0.2 0.7
v 0.2 0.2 0.6
v 0.2 0.3 0.8
v 0.2 0.3 0.7
v 0.2 0.3 0.6
v 0.2 0.3 0
v 0.2 0.3 -0.1
v 0.2 0.3 -1.8
v 0.2 0.4 0.8
v 0.2 0.4 0.7
v 0.2 0.4 0.6
v 0.2 0.4 0
v 0.2 0.4 -0.1
v 0.2 0.4 -1.8
v 0.2 0.5 0.7
v 0.2 0.5 0.6
v 0.2 0.6 0
v 0.2 0.6 -0.1
v 0 0.3 0.9
v 0 0.4 0.9
v 0.1 0.3 0.9
v 0.1 0.4 0.9
v -0.1 0.3 0.8
v -0.1 0.4 0.8
v 0 0.2 0.8
v 0 0.3 0.8
v 0 0.4 0.8
v 0 0.5 0.8
v 0.1 0.2 0.8
v 0.1 0.3 0.8
v 0.1 0.4 0.8
v 0.1 0.5 0.8
v 0.2 0.3 0.8
v 0.2 0.4 0.8
v -0.1 0.2 0.7
v -0.1 0.3 0.7
v -0.1 0.4 0.7
v -0.1 0.5 0.7
v 0 0.2 0.7
v 0 0.3 0.7
v 0 0.4 0.7
v 0 0.5 0.7
v 0.1 0.2 0.7
v 0.1 0.3 0.7
v 0.1 0.4 0.7
v 0.1 0.5 0.7
v 0.2 0.2 0.7
v 0.2 0.3 0.7
v 0.2 0.4 0.7
v 0.2 0.5 0.7
v -0.1 0.1 0
v -0.1 0.3 0
v -0.1 0.4 0
v -0.1 0.6 0
v 0 0 0
v 0 0.1 0
v 0 0.2 0
v 0 0.3 0
v 0 0.4 0
v 0 0.5 0
v 0 0.6 0
v 0 0.7 0
v 0.1 0 0
v 0.1 0.1 0
v 0.1 0.2 0
v 0.1 0.3 0
v 0.1 0.4 0
v 0.1 0.5 0
v 0.1 0.6 0
v 0.1 0.7 0
v 0.2 0.1 0
v 0.2 0.3 0
v 0.2 0.4 0
v 0.2 0.6 0
v -0.1 0.2 0.6
v -0.1 0.3 0.6
v -0.1 0.4 0.6
v -0.1 0.5 0.6
v 0 0.2 0.6
v 0 0.3 0.6
v 0 0.4 0.6
v 0 0.5 0.6
v 0.1 0.2 0.6
v 0.1 0.3 0.6
v 0.1 0.4 0.6
v 0.1 0.5 0.6
v 0.2 0.2 0.6
v 0.2 0.3 0.6
v 0.2 0.4 0.6
v 0.2 0.5 0.6
v -0.1 0.1 -0.1
v -0.1 0.3 -0.1
v -0.1 0.4 -0.1
v -0.1 0.6 -0.1
v 0 0 -0.1
v 0 0.1 -0.1
v 0 0.2 -0.1
v 0 0.3 -0.1
v 0 0.4 -0.1
v 0 0.5 -0.1
v 0 0.6 -0.1
v 0 0.7 -0.1
v 0.1 0 -0.1
v 0.1 0.1 -0.1
v 0.1 0.2 -0.1
v 0.1 0.3 -0.1
v 0.1 0.4 -0.1
v 0.1 0.5 -0.1
v 0.1 0.6 -0.1
v 0.1 0.7 -0.1
v 0.2 0.1 -0.1
v 0.2 0.3 -0.1
v 0.2 0.4 -0.1
v 0.2 0.6 -0.1
v -0.1 0.3 -1.8
v -0.1 0.4 -1.8
v 0 0.1 -1.8
v 0 0.2 -1.8
v 0 0.3 -1.8
v 0 0.4 -1.8
v 0 0.5 -1.8
v 0 0.6 -1.8
v 0.1 0.1 -1.8
v 0.1 0.2 -1.8
v 0.1 0.3 -1.8
v 0.1 0.4 -1.8
v 0.1 0.5 -1.8
v 0.1 0.6 -1.8
v 0.2 0.3 -1.8
v 0.2 0.4 -1.8
v 0 0.2 -2.1
v 0 0.3 -2.1
v 0 0.4 -2.1
v 0 0.5 -2.1
v 0.1 0.2 -2.1
v 0.1 0.3 -2.1
v 0.1 0.4 -2.1
v 0.1 0.5 -2.1
v 0 0.3 -2.3
v 0 0.4 -2.3
v 0.1 0.3 -2.3
v 0.1 0.4 -2.3
v 0 0 0
v 0.1 0 0
v 0 0 -0.1
v 0.1 0 -0.1
v -0.1 0.1 0
v 0 0.1 0
v 0.1 0.1 0
v 0.2 0.1 0
v -0.1 0.1 -0.1
v 0 0.1 -0.1
v 0.1 0.1 -0.1
v 0.2 0.1 -0.1
v 0 0.1 -1.8
v 0.1 0.1 -1.8
v 0 0.2 0.8
v 0.1 0.2 0.8
v -0.1 0.2 0.7
v 0 0.2 0.7
v 0.1 0.2 0.7
v 0.2 0.2 0.7
v -0.1 0.2 0.6
v 0 0.2 0.6
v 0.1 0.2 0.6
v 0.2 0.2 0.6
v 0 0.2 0
v 0.1 0.2 0
v 0 0.2 -1.8
v 0.1 0.2 -1.8
v 0 0.2 -2.1
v 0.1 0.2 -2.1
v 0 0.3 0.9
v 0.1 0.3 0.9
v -0.1 0.3 0.8
v 0 0.3 0.8
v 0.1 0.3 0.8
v 0.2 0.3 0.8
v -0.1 0.3 0.7
v 0 0.3 0.7
v 0.1 0.3 0.7
v 0.2 0.3 0.7
v -0.1 0.3 0.6
v 0 0.3 0.6
v 0.1 0.3 0.6
v 0.2 0.3 0.6
v -0.1 0.3 0
v 0 0.3 0
v 0.1 0.3 0
v 0.2 0.3 0
v -0.1 0.3 -0.1
v 0 0.3 -0.1
v 0.1 0.3 -0.1
v 0.2 0.3 -0.1
v -0.1 0.3 -1.8
v 0 0.3 -1.8
v 0.1 0.3 -1.8
v 0.2 0.3 -1.8
v 0 0.3 -2.1
v 0.1 0.3 -2.1
v 0 0.3 -2.3
v 0.1 0.3 -2.3
v 0 0.4 0.9
v 0.1 0.4 0.9
v -0.1 0.4 0.8
v 0 0.4 0.8
v 0.1 0.4 0.8
v 0.2 0.4 0.8
v -0.1 0.4 0.7
v 0 0.4 0.7
v 0.1 0.4 0.7
v 0.2 0.4 0.7
v -0.1 0.4 0.6
v 0 0.4 0.6
v 0.1 0.4 0.6
v 0.2 0.4 0.6
v -0.1 0.4 0
v 0 0.4 0
v 0.1 0.4 0
v 0.2 0.4 0
v -0.1 0.4 -0.1
v 0 0.4 -0.1
v 0.1 0.4 -0.1
v 0.2 0.4 -0.1
v -0.1 0.4 -1.8
v 0 0.4 -1.8
v 0.1 0.4 -1.8
v 0.2 0.4 -1.8
v 0 0.4 -2.1
v 0.1 0.4 -2.1
v 0 0.4 -2.3
v 0.1 0.4 -2.3
v 0 0.5 0.8
v 0.1 0.5 0.8
v -0.1 0.5 0.7
v 0 0.5 0.7
v 0.1 0.5 0.7
v 0.2 0.5 0.7
v -0.1 0.5 0.6
v 0 0.5 0.6
v 0.1 0.5 0.6
v 0.2 0.5 0.6
v 0 0.5 0
v 0.1 0.5 0
v 0 0.5 -1.8
v 0.1 0.5 -1.8
v 0 0.5 -2.1
v 0.1 0.5 -2.1
v -0.1 0.6 0
v 0 0.6 0
v 0.1 0.6 0
v 0.2 0.6 0
v -0.1 0.6 -0.1
v 0 0.6 -0.1
v 0.1 0.6 -0.1
v 0.2 0.6 -0.1
v 0 0.6 -1.8
v 0.1 0.6 -1.8
v 0 0.7 0
v 0.1 0.7 0
v 0 0.7 -0.1
v 0.1 0.7 -0.1

# faces
f 6/1/1 4/1/1 3/1/1
f 7/1/1 4/1/1 6/1/1
f 8/1/1 2/1/1 1/1/1
f 9/1/1 2/1/1 8/1/1
f 11/1/1 7/1/1 6/1/1
f 11/1/1 6/1/1 5/1/1
f 12/1/1 7/1/1 11/1/1
f 13/4/1 8/4/1 7/4/1
f 13/1/1 7/1/1 12/1/1
f 14/1/1 9/1/1 8/1/1
f 14/4/1 8/4/1 13/4/1
f 15/3/1 10/3/1 9/3/1
f 15/1/1 9/1/1 14/1/1
f 16/3/1 10/3/1 15/3/1
f 17/1/1 13/1/1 12/1/1
f 18/1/1 13/1/1 17/1/1
f 19/1/1 15/1/1 14/1/1
f 20/1/1 15/1/1 19/1/1
f 23/1/1 22/1/1 21/1/1
f 24/1/1 22/1/1 23/1/1
f 30/3/1 25/3/1 24/3/1
f 31/3/1 25/3/1 30/3/1
f 34/1/1 27/1/1 26/1/1
f 35/1/1 27/1/1 34/1/1
f 36/4/1 29/4/1 28/4/1
f 37/4/1 29/4/1 36/4/1
f 38/2/1 31/2/1 30/2/1
f 39/3/1 32/3/1 31/3/1
f 39/2/1 31/2/1 38/2/1
f 40/3/1 32/3/1 39/3/1
f 42/1/1 34/1/1 33/1/1
f 43/1/1 34/1/1 42/1/1
f 48/2/1 40/2/1 39/2/1
f 49/3/1 41/3/1 40/3/1
f 49/2/1 40/2/1 48/2/1
f 50/3/1 41/3/1 49/3/1
f 51/1/1 44/1/1 43/1/1
f 52/1/1 44/1/1 51/1/1
f 53/4/1 46/4/1 45/4/1
f 54/4/1 46/4/1 53/4/1
f 55/2/1 48/2/1 47/2/1
f 56/3/1 49/3/1 48/3/1
f 56/2/1 48/2/1 55/2/1
f 57/3/1 49/3/1 56/3/1
f 59/3/1 56/3/1 55/3/1
f 60/3/1 56/3/1 59/3/1
f 61/1/1 59/1/1 58/1/1
f 62/1/1 59/1/1 61/1/1
f 63/1/2 64/1/2 65/1/2
f 65/1/2 64/1/2 66/1/2
f 66/3/2 67/3/2 72/3/2
f 72/3/2 67/3/2 73/3/2
f 68/1/2 69/1/2 76/1/2
f 76/1/2 69/1/2 77/1/2
f 70/4/2 71/4/2 78/4/2
f 78/4/2 71/4/2 79/4/2
f 72/2/2 73/2/2 80/2/2
f 73/3/2 74/3/2 81/3/2
f 80/2/2 73/2/2 81/2/2
f 81/3/2 74/3/2 82/3/2
f 75/1/2 76/1/2 84/1/2
f 84/1/2 76/1/2 85/1/2
f 81/2/2 82/2/2 90/2/2
f 82/3/2 83/3/2 91/3/2
f 90/2/2 82/2/2 91/2/2
f 91/3/2 83/3/2 92/3/2
f 85/1/2 86/1/2 93/1/2
f 93/1/2 86/1/2 94/1/2
f 87/4/2 88/4/2 95/4/2
f 95/4/2 88/4/2 96/4/2
f 89/2/2 90/2/2 97/2/2
f 90/3/2 91/3/2 98/3/2
f 97/2/2 90/2/2 98/2/2
f 98/3/2 91/3/2 99/3/2
f 97/3/2 98/3/2 101/3/2
f 101/3/2 98/3/2 102/3/2
f 100/1/2 101/1/2 103/1/2
f 103/1/2 101/1/2 104/1/2
f 107/1/2 108/1/2 110/1/2
f 110/1/2 108/1/2 111/1/2
f 105/1/2 106/1/2 112/1/2
f 112/1/2 106/1/2 113/1/2
f 110/1/2 111/1/2 115/1/2
f 109/1/2 110/1/2 115/1/2
f 115/1/2 111/1/2 116/1/2
f 111/4/2 112/4/2 117/4/2
f 116/1/2 111/1/2 117/1/2
f 112/1/2 113/1/2 118/1/2
f 117/4/2 112/4/2 118/4/2
f 113/3/2 114/3/2 119/3/2
f 118/1/2 113/1/2 119/1/2
f 119/3/2 114/3/2 120/3/2
f 116/1/2 117/1/2 121/1/2
f 121/1/2 117/1/2 122/1/2
f 118/1/2 119/1/2 123/1/2
f 123/1/2 119/1/2 124/1/2
f 127/1/3 126/1/3 125/1/3
f 128/1/3 126/1/3 127/1/3
f 132/1/3 130/1/3 129/1/3
f 133/1/3 130/1/3 132/1/3
f 135/1/3 132/1/3 131/1/3
f 136/1/3 132/1/3 135/1/3
f 137/1/3 134/1/3 133/1/3
f 138/1/3 134/1/3 137/1/3
f 139/1/3 137/1/3 136/1/3
f 140/1/3 137/1/3 139/1/3
f 145/1/3 142/1/3 141/1/3
f 146/1/3 142/1/3 145/1/3
f 147/1/3 144/1/3 143/1/3
f 148/1/3 144/1/3 147/1/3
f 153/1/3 150/1/3 149/1/3
f 154/1/3 150/1/3 153/1/3
f 155/1/3 152/1/3 151/1/3
f 156/1/3 152/1/3 155/1/3
f 162/1/3 158/1/3 157/1/3
f 163/1/3 158/1/3 162/1/3
f 164/1/3 158/1/3 163/1/3
f 165/1/3 160/1/3 159/1/3
f 166/1/3 160/1/3 165/1/3
f 167/1/3 160/1/3 166/1/3
f 169/1/3 162/1/3 161/1/3
f 169/1/3 163/1/3 162/1/3
f 170/1/3 163/1/3 169/1/3
f 171/1/3 163/1/3 170/1/3
f 174/1/3 168/1/3 167/1/3
f 174/1/3 167/1/3 166/1/3
f 175/1/3 168/1/3 174/1/3
f 176/1/3 168/1/3 175/1/3
f 177/1/3 172/1/3 171/1/3
f 177/1/3 171/1/3 170/1/3
f 178/1/3 172/1/3 177/1/3
f 179/1/3 175/1/3 174/1/3
f 179/1/3 174/1/3 173/1/3
f 180/1/3 175/1/3 179/1/3
f 181/1/4 182/1/4 185/1/4
f 185/1/4 182/1/4 186/1/4
f 183/1/4 184/1/4 187/1/4
f 187/1/4 184/1/4 188/1/4
f 189/1/4 190/1/4 193/1/4
f 193/1/4 190/1/4 194/1/4
f 191/1/4 192/1/4 195/1/4
f 195/1/4 192/1/4 196/1/4
f 197/1/4 198/1/4 202/1/4
f 202/1/4 198/1/4 203/1/4
f 203/1/4 198/1/4 204/1/4
f 199/1/4 200/1/4 205/1/4
f 205/1/4 200/1/4 206/1/4
f 206/1/4 200/1/4 207/1/4
f 201/1/4 202/1/4 209/1/4
f 209/1/4 202/1/4 210/1/4
f 207/1/4 208/1/4 215/1/4
f 215/1/4 208/1/4 216/1/4
f 210/1/4 211/1/4 217/1/4
f 211/1/4 212/1/4 217/1/4
f 217/1/4 212/1/4 218/1/4
f 213/1/4 214/1/4 219/1/4
f 214/1/4 215/1/4 219/1/4
f 219/1/4 215/1/4 220/1/4
f 221/3/4 222/3/4 225/3/4
f 225/3/4 222/3/4 226/3/4
f 223/3/4 224/3/4 229/3/4
f 229/3/4 224/3/4 230/3/4
f 227/3/4 228/3/4 233/3/4
f 233/3/4 228/3/4 234/3/4
f 231/3/4 232/3/4 235/3/4
f 235/3/4 232/3/4 236/3/4
f 237/3/4 238/3/4 241/3/4
f 241/3/4 238/3/4 242/3/4
f 239/3/4 240/3/4 243/3/4
f 243/3/4 240/3/4 244/3/4
f 245/3/4 246/3/4 247/3/4
f 247/3/4 246/3/4 248/3/4
f 251/1/5 250/1/5 249/1/5
f 252/1/5 250/1/5 251/1/5
f 257/1/5 254/1/5 253/1/5
f 258/1/5 254/1/5 257/1/5
f 259/1/5 256/1/5 255/1/5
f 260/1/5 256/1/5 259/1/5
f 261/3/5 259/3/5 258/3/5
f 262/3/5 259/3/5 261/3/5
f 266/1/5 264/1/5 263/1/5
f 267/1/5 264/1/5 266/1/5
f 269/1/5 266/1/5 265/1/5
f 269/1/5 268/1/5 267/1/5
f 269/1/5 267/1/5 266/1/5
f 270/1/5 268/1/5 269/1/5
f 271/1/5 268/1/5 270/1/5
f 272/1/5 268/1/5 271/1/5
f 273/4/5 271/4/5 270/4/5
f 274/4/5 271/4/5 273/4/5
f 277/3/5 276/3/5 275/3/5
f 278/3/5 276/3/5 277/3/5
f 282/1/5 280/1/5 279/1/5
f 283/1/5 280/1/5 282/1/5
f 285/1/5 282/1/5 281/1/5
f 286/1/5 282/1/5 285/1/5
f 287/1/5 284/1/5 283/1/5
f 288/1/5 284/1/5 287/1/5
f 293/4/5 290/4/5 289/4/5
f 294/4/5 290/4/5 293/4/5
f 295/4/5 292/4/5 291/4/5
f 296/4/5 292/4/5 295/4/5
f 301/3/5 298/3/5 297/3/5
f 302/3/5 298/3/5 301/3/5
f 303/3/5 300/3/5 299/3/5
f 304/3/5 300/3/5 303/3/5
f 307/3/5 306/3/5 305/3/5
f 308/3/5 306/3/5 307/3/5
f 309/1/6 310/1/6 312/1/6
f 312/1/6 310/1/6 313/1/6
f 311/1/6 312/1/6 315/1/6
f 315/1/6 312/1/6 316/1/6
f 313/1/6 314/1/6 317/1/6
f 317/1/6 314/1/6 318/1/6
f 319/4/6 320/4/6 323/4/6
f 323/4/6 320/4/6 324/4/6
f 321/4/6 322/4/6 325/4/6
f 325/4/6 322/4/6 326/4/6
f 327/3/6 328/3/6 331/3/6
f 331/3/6 328/3/6 332/3/6
f 329/3/6 330/3/6 333/3/6
f 333/3/6 330/3/6 334/3/6
f 335/3/6 336/3/6 337/3/6
f 337/3/6 336/3/6 338/3/6
f 339/1/6 340/1/6 342/1/6
f 342/1/6 340/1/6 343/1/6
f 341/1/6 342/1/6 345/1/6
f 343/1/6 344/1/6 345/1/6
f 342/1/6 343/1/6 345/1/6
f 345/1/6 344/1/6 346/1/6
f 346/1/6 344/1/6 347/1/6
f 347/1/6 344/1/6 348/1/6
f 346/4/6 347/4/6 349/4/6
f 349/4/6 347/4/6 350/4/6
f 351/3/6 352/3/6 353/3/6
f 353/3/6 352/3/6 354/3/6
f 355/1/6 356/1/6 359/1/6
f 359/1/6 356/1/6 360/1/6
f 357/1/6 358/1/6 361/1/6
f 361/1/6 358/1/6 362/1/6
f 360/3/6 361/3/6 363/3/6
f 363/3/6 361/3/6 364/3/6
f 365/1/6 366/1/6 367/1/6
f 367/1/6 366/1/6 368/1/6
